<svg xmlns="http://www.w3.org/2000/svg" xmlns:xlink="http://www.w3.org/1999/xlink" class="" app-context="doc-2d" x="0px" y="0px" width="150" height="80" jvs-fullPath="gdrive/plane.svg"><title/><desc/><defs><filter id="ab">
   <feGaussianBlur stdDeviation=".97308"/>
  </filter><filter id="aa">
   <feGaussianBlur stdDeviation="1.14282"/>
  </filter><filter id="x">
   <feGaussianBlur stdDeviation="3.04991"/>
  </filter><filter id="w">
   <feGaussianBlur stdDeviation="7.69536"/>
  </filter><filter id="v">
   <feGaussianBlur stdDeviation="5.61279"/>
  </filter><filter id="s">
   <feGaussianBlur stdDeviation="2.83366"/>
  </filter><filter id="r">
   <feGaussianBlur stdDeviation="2.05358"/>
  </filter><filter id="ad" x="-.06278" y="-.40332" width="1.1256" height="1.8066">
   <feGaussianBlur stdDeviation="3.52245"/>
  </filter><filter id="ac" x="-.02882" y="-.17247" width="1.0576" height="1.3449">
   <feGaussianBlur stdDeviation="6.92901"/>
  </filter><filter id="l" x="-.26631" y="-.04163" width="1.5326" height="1.0832">
   <feGaussianBlur stdDeviation=".86031"/>
  </filter><filter id="k" x="-.11498" y="-.5816" width="1.23" height="2.1632">
   <feGaussianBlur stdDeviation="3.42767"/>
  </filter><filter id="j" x="-.07082" y="-.10321" width="1.1416" height="1.2064">
   <feGaussianBlur stdDeviation="1.27588"/>
  </filter><filter id="i" x="-.06676" y="-.59271" width="1.1335" height="2.1854">
   <feGaussianBlur stdDeviation="1.61715"/>
  </filter><filter id="a" x="-.24429" y="-.90095" width="1.4886" height="2.8019">
   <feGaussianBlur stdDeviation="1.86006"/>
  </filter><filter id="z" x="-.13977" y="-.17649" width="1.2795" height="1.353">
   <feGaussianBlur stdDeviation=".9291"/>
  </filter><filter id="y" x="-.09925" y="-.15173" width="1.1985" height="1.3035">
   <feGaussianBlur stdDeviation="14.58661"/>
  </filter><filter id="u" x="-.07527" y="-.13248" width="1.1506" height="1.265">
   <feGaussianBlur stdDeviation="3.95073"/>
  </filter><filter id="t" x="-.08468" y="-.14904" width="1.1694" height="1.2981">
   <feGaussianBlur stdDeviation="4.73493"/>
  </filter><filter id="h" x="-.25057" y="-.95752" width="1.5011" height="2.915">
   <feGaussianBlur stdDeviation="2.02041"/>
  </filter><linearGradient id="q" x1="-110.869" x2="-111.934" y1="-13.528" y2="-16.5286" gradientUnits="userSpaceOnUse">
   <stop stop-color="#333" offset="0"/>
   <stop stop-color="#ccc" offset="1"/>
  </linearGradient><linearGradient id="p" x1="-113.073" x2="-112.925" y1="-15.3691" y2="-13.9371" gradientUnits="userSpaceOnUse">
   <stop stop-color="#4d4d4d" offset="0"/>
   <stop stop-color="#1a1a1a" stop-opacity="0" offset="1"/>
  </linearGradient><linearGradient id="f" x1="3.41531" x2="3.95103" y1="7.44359" y2="7.5257" gradientUnits="userSpaceOnUse">
   <stop stop-color="#999" offset="0"/>
   <stop stop-color="#4d4d4d" offset="1"/>
  </linearGradient><linearGradient id="d" x1="2.92874" x2="3.06736" y1="7.02447" y2="7.66834" gradientUnits="userSpaceOnUse">
   <stop stop-color="#ccc" offset="0"/>
   <stop stop-color="#1a1a1a" offset="1"/>
  </linearGradient><linearGradient id="c" x1="337.54" x2="333.75" y1="832.52" y2="855.61" gradientUnits="userSpaceOnUse">
   <stop stop-color="#999" offset="0"/>
   <stop stop-color="#1a1a1a" offset="1"/>
  </linearGradient><linearGradient id="o" x1="-52.3315" x2="-56.1473" y1="47.8513" y2="50.3212" gradientUnits="userSpaceOnUse">
   <stop stop-color="#5d575b" offset="0"/>
   <stop stop-color="#808080" offset="1"/>
  </linearGradient><linearGradient id="n" x1="716.14" x2="857.68" y1="606.18" y2="589.34" gradientUnits="userSpaceOnUse">
   <stop offset="0"/>
   <stop stop-opacity="0" offset="1"/>
  </linearGradient><linearGradient id="m" x1="-93.6341" x2="-93.0139" y1="64.74" y2="66.6858" gradientUnits="userSpaceOnUse">
   <stop stop-color="#e6e6e6" offset="0"/>
   <stop stop-color="#ccc" offset="1"/>
  </linearGradient><linearGradient id="e" x1="3.0767" x2="3.81076" y1="7.18577" y2="7.37827" gradientUnits="userSpaceOnUse"><stop stop-color="#ccc" offset="0"/><stop stop-color="#4d4d4d" offset="1"/></linearGradient><radialGradient id="b" cx="2.6419" cy="7.32014" r="0.0994043" gradientTransform="matrix(-1.7362 2.7329 -2.6692 -1.6958 2828.6 1569.3)" gradientUnits="userSpaceOnUse"><stop stop-color="#ccc" offset="0"/><stop stop-color="#4d4d4d" offset="1"/></radialGradient><linearGradient id="__1507201789515_1__" x1="54.5249" y1="0" x2="54.5249" y2="27.2969" gradientUnits="userSpaceOnUse" gradientTransform="matrix(1 0 0 1 0 0)"><stop offset="0" style="stop-color:rgb(249, 252, 247)"/><stop offset="1" style="stop-color:rgb(245, 249, 240)"/></linearGradient><filter jvs-preview="IMAGE_FILTER_PREVIEW" id="__1507201789515_2__">
            <feComponentTransfer>
                <feFuncR type="table" tableValues="1 0"/>
                <feFuncG type="table" tableValues="1 0"/>
                <feFuncB type="table" tableValues="1 0"/>
            </feComponentTransfer>
        </filter><filter id="__1507201789515_3__" jvs-controller="FancyGooFilter" jvs-preview="TEXT_FILTER_PREVIEW" filterUnits="objectBoundingBox" x="-50%" y="-50%" width="200%" height="200%">
            <feGaussianBlur in="SourceGraphic" stdDeviation="10" result="blur"/>
            <feColorMatrix in="blur" mode="matrix" values="1 0 0 0 0 0 1 0 0 0 0 0 1 0 0 0 0 0 19 -9" result="goo"/>
            <feComposite in="SourceGraphic" in2="goo" operator="atop"/>
        </filter><link xmlns="http://www.w3.org/1999/xhtml" rel="stylesheet" type="text/css" href="https://fonts.googleapis.com/css?family=Alegreya+Sans+SC:regular&amp;subset=latin"></link></defs><g id="jvs-guides" transform="matrix(1 0 0 1 0 0)"/><g id="jvs-content" enable-background="new"><g transform="matrix(1,0,0,1,0,0)" name="Layer" jvs-layer-color="#fb0094" class="jvs-layer selected"><g transform="matrix(0.997904 -0.064738 0.064738 0.997904 -32.1116 -105.465)" filter="url(#__1507201789515_2__)" selected="true">
  <path d="M 167.33241271972656 141.99034118652344 C 167.33241271972656 141.99034118652344 168.54705810546875 143.1966552734375 166.1177978515625 144.28231811523438 C 163.6885223388672 145.36802673339844 148.97817993164062 149.71070861816406 136.69776916503906 151.03756713867188 C 124.41743469238281 152.36441040039062 90.54187774658203 157.1896209716797 90.54187774658203 157.1896209716797 L 71.64791107177734 160.0847930908203 C 71.64791107177734 160.0847930908203 57.20756149291992 160.92919921875 54.778167724609375 160.8085479736328 C 52.348777770996094 160.6879119873047 47.625511169433594 160.20538330078125 47.625511169433594 160.20538330078125 C 47.625511169433594 160.20538330078125 50.99937438964844 159.6022491455078 51.94407653808594 159.60223388671875 C 52.88876724243164 159.60223388671875 60.85129928588867 159.48159790039062 68.543701171875 158.3959503173828 C 76.2361068725586 157.31028747558594 103.63285064697266 153.57077026367188 105.65756225585938 152.96755981445312 C 107.6822738647461 152.3643798828125 132.9194793701172 149.71070861816406 134.94415283203125 149.22801208496094 C 136.96888732910156 148.74533081054688 150.59912109375 147.05674743652344 151.6788787841797 146.57406616210938 C 152.75865173339844 146.0913848876953 157.7519989013672 145.3677978515625 159.23648071289062 144.88526916503906 C 160.72093200683594 144.40277099609375 166.6590118408203 141.9901123046875 166.6590118408203 141.9901123046875 L 167.3338165283203 141.9901123046875 Z" fill="#fff" transform="matrix(1 0 0 1 2.42252e-8 2.59045e-7)"/>
  <g transform="matrix(1 0 0 1 144.896 168.378)">
   <path d="M -109.26559448242188 -13.595841407775879 L -111.63093566894531 -13.595843315124512 C -111.73002624511719 -14.263544082641602 -112.81746673583984 -15.672554016113281 -112.16506958007812 -16.25562286376953 L -109.87606811523438 -16.801227569580078 C -109.87606811523438 -16.801227569580078 -109.79976654052734 -15.505465507507324 -109.57086944580078 -14.755250930786133 C -109.34197235107422 -14.005037307739258 -109.34194946289062 -13.595803260803223 -109.26567077636719 -13.595804214477539 Z" fill="url(#q)" transform="matrix(1 0 0 1 -0.0000349049 -0.0000342801)"/>
   <path transform="matrix(0.998152 0.0607701 -0.0607701 0.998152 0.818674 -6.06424)" d="M -111.29499053955078 -2.532867193222046 C -111.29499053955078 -2.532867193222046 -113.71073150634766 -2.1847147941589355 -113.22990417480469 -2.034299612045288 C -112.74907684326172 -1.8838731050491333 -111.53671264648438 -2.0241386890411377 -111.53671264648438 -2.0241386890411377 L -111.29499816894531 -2.532867193222046 Z" fill="#fff" filter="url(#h)"/>
   <path d="M -112.31364440917969 -16.05067253112793 L -114.98420715332031 -14.550246238708496 L -111.70330047607422 -13.936447143554688 L -112.3136978149414 -16.05067253112793 Z" fill="url(#p)" transform="matrix(1 0 0 1 -0.0000349049 -0.0000342801)"/>
   <path transform="matrix(0.996805 0.0798795 -0.0798795 0.996805 -1.24151 -7.99719)" d="M -111.1447525024414 1.8248053789138794 C -111.1447525024414 1.8248053789138794 -113.5572509765625 2.171100616455078 -113.07706451416016 2.2693252563476562 C -112.59688568115234 2.3675498962402344 -111.38615417480469 2.219979763031006 -111.38615417480469 2.219979763031006 L -111.14476776123047 1.824805498123169 Z" fill="#fff" filter="url(#h)"/>
  </g>
  <path d="M 60.76284408569336 150.72479248046875 L 148.23959350585938 138.27267456054688 C 148.23959350585938 138.27267456054688 161.16665649414062 136.926513671875 165.05723571777344 139.84320068359375 C 168.9478302001953 142.75991821289062 167.818359375 142.984375 165.93576049804688 144.33050537109375 C 164.0531768798828 145.67665100097656 161.4176483154297 148.70555114746094 147.4864959716797 150.50057983398438 C 133.55532836914062 152.29556274414062 119.12127685546875 153.64170837402344 116.9898910522461 155.21217346191406 C 114.85851287841797 156.78265380859375 111.71864318847656 156.6705322265625 111.71864318847656 156.6705322265625 C 111.71864318847656 156.6705322265625 114.73072052001953 155.77310180664062 113.3502197265625 154.8756103515625 C 111.96971130371094 153.97816467285156 89.62967681884766 157.79226684570312 89.62967681884766 157.79226684570312 C 89.62967681884766 157.79226684570312 87.99811553955078 158.68971252441406 87.74711608886719 159.13841247558594 C 87.49609375 159.587158203125 71.30604553222656 161.2698516845703 66.41112518310547 161.7186737060547 C 61.51619338989258 162.16749572753906 35.7884407043457 158.68978881835938 35.7884407043457 158.68978881835938 L 35.1609001159668 156.22181701660156 L 40.934085845947266 154.7634735107422 L 40.934085845947266 154.20252990722656 L 35.66283416748047 155.09996032714844 C 35.66283416748047 155.09996032714844 35.03529357910156 154.09034729003906 34.9097900390625 152.51971435546875 C 34.78428268432617 150.9490966796875 34.0312614440918 151.2857666015625 34.0312614440918 151.2857666015625 L 28.258075714111328 152.0709991455078 C 28.258075714111328 152.0709991455078 27.50505828857422 150.83702087402344 28.760103225708008 150.1639404296875 C 30.015155792236328 149.49085998535156 36.79247283935547 148.03253173828125 36.79247283935547 148.03253173828125 L 27.755998611450195 139.05812072753906 L 34.15672302246094 138.27284240722656 C 34.15672302246094 138.27284240722656 34.15672302246094 137.71192932128906 36.41580581665039 139.17027282714844 C 38.674888610839844 140.62863159179688 50.72328567504883 146.68646240234375 50.72328567504883 146.68646240234375 L 57.75154495239258 145.6768341064453 C 57.75154495239258 145.6768341064453 58.624244689941406 145.30288696289062 59.26319885253906 146.5144500732422 C 60.64022445678711 149.12570190429688 59.7596321105957 150.72499084472656 59.7596321105957 150.72499084472656 L 60.7636604309082 150.72499084472656 Z" fill="#fff" stroke="#666" stroke-width="0.09971315738576918" transform="matrix(1 0 0 1 2.42252e-8 2.59045e-7)"/>
  <path d="M 158.29525756835938 138.11727905273438 C 158.29525756835938 138.11727905273438 162.7834930419922 138.3603973388672 165.50363159179688 140.0623779296875 C 168.22378540039062 141.7643280029297 167.95169067382812 141.88589477539062 164.9595947265625 142.98007202148438 C 161.967529296875 144.07423400878906 154.89501953125 146.5054931640625 145.23829650878906 147.96434020996094 C 135.58155822753906 149.4232177734375 91.51461791992188 155.37997436523438 87.4337158203125 155.98794555664062 C 83.35279083251953 156.59584045410156 67.03248596191406 158.78404235839844 59.960811614990234 159.14881896972656 C 52.88916015625 159.51356506347656 35.751220703125 158.90567016601562 35.751220703125 158.90567016601562 L 35.47920227050781 157.20370483398438 C 35.47920227050781 157.20370483398438 49.35216522216797 157.68997192382812 59.00865173339844 157.08213806152344 C 68.66513061523438 156.47430419921875 141.1581573486328 146.14088439941406 147.00674438476562 145.04678344726562 C 152.8553466796875 143.95269775390625 159.11154174804688 142.4938507080078 159.11154174804688 142.4938507080078 C 159.11154174804688 142.4938507080078 162.78367614746094 139.94090270996094 161.69566345214844 139.33297729492188 C 160.607666015625 138.7250213623047 158.1593475341797 138.11727905273438 158.29537963867188 138.11727905273438 Z" fill="#192851" stroke="#000" stroke-width="0.09971315738576918" transform="matrix(1 0 0 1 2.42252e-8 2.59045e-7)"/>
  <g transform="matrix(1 0 0 1 140.582 66.7938)">
   <path d="M -24.831552505493164 74.7007827758789 C -24.831552505493164 74.7007827758789 -23.903539657592773 74.9521255493164 -23.50981330871582 75.63080596923828 C -23.116086959838867 76.30946350097656 -22.919260025024414 78.64710998535156 -23.031747817993164 79.30060577392578 C -23.14422035217285 79.95409393310547 -23.95975112915039 80.45684051513672 -23.95975112915039 80.45684051513672 C -23.95975112915039 80.45684051513672 -24.803390502929688 78.32026672363281 -24.859621047973633 76.86245727539062 C -24.915876388549805 75.40464782714844 -24.943994522094727 74.70081329345703 -24.83152198791504 74.7008056640625 Z" fill="#e6e6e6" stroke="#000" transform="matrix(1 0 0 1 -0.0000510906 -0.00000833721)"/>
   <path d="M -36.36140060424805 75.17778778076172 C -36.36140060424805 75.17778778076172 -32.846221923828125 75.52969360351562 -30.849590301513672 75.37886810302734 C -28.85295867919922 75.22806549072266 -24.97223663330078 74.52425384521484 -24.97223663330078 74.52425384521484 C -24.97223663330078 74.52425384521484 -25.0003719329834 76.9875717163086 -24.719154357910156 78.11864471435547 C -24.437936782836914 79.24971771240234 -23.903644561767578 80.45630645751953 -23.903644561767578 80.45630645751953 C -23.903644561767578 80.45630645751953 -29.38728141784668 81.2354965209961 -31.3558349609375 81.2354965209961 C -33.32442855834961 81.23550415039062 -33.4087028503418 81.21038055419922 -33.4087028503418 81.21038055419922 L -33.60554885864258 80.60710906982422 C -33.60554885864258 80.60710906982422 -35.96772003173828 80.60710906982422 -36.22084045410156 80.4814224243164 C -36.473968505859375 80.35575103759766 -36.55828857421875 79.97872161865234 -36.55828857421875 79.97872161865234 C -36.55828857421875 79.97872161865234 -38.58309555053711 79.77762603759766 -38.75172805786133 79.67708587646484 C -38.920372009277344 79.57654571533203 -39.117305755615234 79.27491760253906 -38.639259338378906 79.09895324707031 C -38.16119384765625 78.92302703857422 -36.670772552490234 78.06839752197266 -36.670772552490234 78.06839752197266 C -36.670772552490234 78.06839752197266 -38.526817321777344 78.29461669921875 -39.22987747192383 78.29460906982422 C -39.93293762207031 78.29461669921875 -40.86094665527344 78.04325103759766 -40.86094665527344 78.04325103759766 L -37.064605712890625 75.52969360351562 L -36.361568450927734 75.17778778076172 Z" fill="url(#f)" stroke="#000" transform="matrix(1 0 0 1 -0.0000510906 -0.00000833721)"/>
   <path d="M -36.48584747314453 75.15422058105469 C -36.48584747314453 75.15422058105469 -32.45155715942383 75.47123718261719 -31.12150764465332 75.35234832763672 C -29.791425704956055 75.23346710205078 -28.817420959472656 75.00753784179688 -28.594463348388672 75.35234832763672 C -27.786846160888672 76.60145568847656 -32.062801361083984 76.54950714111328 -32.80613708496094 76.62039947509766 C -33.49050521850586 76.68569946289062 -34.09181594848633 76.73927307128906 -34.09181594848633 77.09591674804688 C -34.091819763183594 77.45256042480469 -34.18048095703125 77.76957702636719 -35.155792236328125 77.88844299316406 C -36.131080627441406 78.00733184814453 -37.372406005859375 78.16584777832031 -38.03739929199219 78.16584777832031 C -38.70237731933594 78.16584014892578 -40.20972442626953 78.28472137451172 -40.520023345947266 78.16584777832031 C -40.83031463623047 78.04696655273438 -40.830360412597656 78.00733184814453 -40.830360412597656 78.00733184814453 L -36.485660552978516 75.1541976928711 Z" fill="url(#e)" stroke="#4d4d4d" transform="matrix(1 0 0 1 -0.0000510906 -0.00000833721)"/>
   <path d="M -34.18135452270508 77.0566177368164 C -34.18135452270508 77.0566177368164 -33.9141960144043 79.79077911376953 -33.647037506103516 80.54363250732422 L -33.379878997802734 81.29651641845703 C -33.379878997802734 81.29651641845703 -27.012622833251953 80.93988037109375 -26.255687713623047 80.78138732910156 C -25.498737335205078 80.62289428710938 -23.984834671020508 80.4643783569336 -23.984834671020508 80.4643783569336 C -23.984834671020508 80.4643783569336 -24.96440315246582 77.4131851196289 -25.05344009399414 76.66033172607422 C -25.14247703552246 75.90748596191406 -24.964397430419922 74.56016540527344 -24.964397430419922 74.56016540527344 L -29.55059814453125 75.19415283203125 C -29.55059814453125 75.19415283203125 -28.303844451904297 75.23379516601562 -28.571016311645508 75.63004302978516 C -28.83818817138672 76.02629852294922 -33.825050354003906 76.66032409667969 -33.825050354003906 76.66032409667969 L -34.181270599365234 77.05658721923828 Z" fill="url(#d)" stroke="#666" stroke-width="0.0999325459629736" transform="matrix(1 0 0 1 -0.0000510906 -0.00000833721)"/>
   <path d="M -24.91486358642578 74.52070617675781 C -22.64212989807129 74.44623565673828 -22.501317977905273 81.19448852539062 -23.939538955688477 80.30615997314453 C -24.66878890991211 78.63275146484375 -25.23732566833496 77.02975463867188 -24.91486358642578 74.52070617675781 Z" fill="url(#b)" stroke="#666" transform="matrix(1 0 0 1 -0.0000510906 -0.00000833721)"/>
   <path d="M -23.98464012145996 75.3125991821289 C -23.98464012145996 75.3125991821289 -24.42797088623047 77.13543701171875 -23.98463249206543 78.40348052978516 C -23.541303634643555 79.67151641845703 -23.363969802856445 79.98857116699219 -23.363969802856445 79.98857116699219 C -23.363969802856445 79.98857116699219 -23.940319061279297 78.4827651977539 -23.895984649658203 77.61093139648438 C -23.851652145385742 76.73912048339844 -23.984661102294922 75.39188385009766 -23.984655380249023 75.31259155273438 Z" filter="url(#l)" transform="matrix(1 0 0 1 -0.0000510906 -0.00000833721)"/>
   <path d="M -25.80186653137207 78.00782012939453 C -25.80186653137207 78.00782012939453 -32.00848388671875 78.72109985351562 -32.80656814575195 78.87960815429688 C -33.604652404785156 79.03811645507812 -33.382904052734375 79.51363372802734 -32.18590545654297 79.27587127685547 C -30.98891258239746 79.03813171386719 -25.93488311767578 78.5229721069336 -25.801876068115234 78.36446380615234 C -25.66888427734375 78.20596313476562 -25.757545471191406 78.00782012939453 -25.8018741607666 78.0078125 Z" fill="#f9f9f9" filter="url(#k)" transform="matrix(1 0 0 1 -0.0000510906 -0.00000833721)"/>
   <path d="M -35.7327995300293 75.5906982421875 C -35.7327995300293 75.5906982421875 -38.348419189453125 77.3342514038086 -39.10210037231445 77.73057556152344 C -39.85577392578125 78.12686920166016 -40.74245071411133 78.40422058105469 -40.03310775756836 77.96832275390625 C -39.323760986328125 77.53243255615234 -35.998817443847656 75.39263916015625 -35.998817443847656 75.39263916015625 L -35.732826232910156 75.59077453613281 Z" fill="#1a1a1a" filter="url(#j)" transform="matrix(1 0 0 1 -0.0000510906 -0.00000833721)"/>
   <path d="M -35.64421081542969 75.86785888671875 C -35.64421081542969 75.86785888671875 -33.33885955810547 76.0263671875 -32.45219421386719 75.98674011230469 C -31.565521240234375 75.94709777832031 -30.36855125427246 75.90748596191406 -30.1911563873291 75.7885971069336 C -30.013761520385742 75.66972351074219 -29.171480178833008 75.51122283935547 -29.880830764770508 75.82823181152344 C -30.590164184570312 76.1452407836914 -33.11713409423828 76.34337615966797 -33.826507568359375 76.2244873046875 C -34.5359001159668 76.10560607910156 -35.732872009277344 76.18486022949219 -35.732872009277344 76.18486022949219 L -35.644187927246094 75.86784362792969 Z" fill="#fff" filter="url(#i)" transform="matrix(1 0 0 1 -0.0000510906 -0.00000833721)"/>
   <path d="M -33.51585388183594 80.58331298828125 C -33.51585388183594 80.58331298828125 -36.04286575317383 80.70219421386719 -36.26446533203125 80.46444702148438 C -36.48605728149414 80.22669982910156 -36.75213623046875 79.35486602783203 -36.752132415771484 78.80007934570312 C -36.75213623046875 78.24529266357422 -36.8851203918457 78.12641906738281 -36.8851203918457 78.12641906738281 C -36.8851203918457 78.12641906738281 -35.599464416503906 78.04718017578125 -35.200477600097656 77.88865661621094 C -34.80148696899414 77.73015594482422 -34.047794342041016 77.49238586425781 -34.047794342041016 77.49238586425781 L -33.515811920166016 80.58326721191406 Z" fill="url(#c)" stroke="#4d4d4d" transform="matrix(1 0 0 1 -0.0000510906 -0.00000833721)"/>
   <path transform="matrix(1 0 0 1 3.40333 12.0818)" d="M -37.49518585205078 66.9718246459961 C -37.49518585205078 66.9718246459961 -39.82050704956055 67.00543975830078 -39.57825469970703 67.20720672607422 C -39.33600997924805 67.40896606445312 -38.60939407348633 67.40897369384766 -38.173404693603516 67.27446746826172 C -37.737422943115234 67.13995361328125 -37.4467658996582 67.03907775878906 -37.495208740234375 66.97181701660156 Z" fill="#fff" filter="url(#a)"/>
   <path transform="matrix(1 0 0 1 -0.0000523571 36.0004)" d="M -36.92986297607422 43.16382598876953 C -36.92986297607422 43.16382598876953 -39.057918548583984 43.185462951660156 -38.836219787597656 43.31523513793945 C -38.61451721191406 43.445011138916016 -37.94955062866211 43.44501495361328 -37.5505485534668 43.35849380493164 C -37.15154266357422 43.27198028564453 -36.885536193847656 43.20708465576172 -36.92988586425781 43.16382598876953 Z" fill="#fff" filter="url(#a)"/>
  </g>
  <g transform="matrix(1 0 0 1 140.206 87.4162)">
   <path d="M -29.801239013671875 56.54219436645508 L -52.530799865722656 59.58970260620117 C -52.530799865722656 59.58970260620117 -52.783355712890625 57.670902252197266 -52.65708923339844 56.88081741333008 C -52.530799865722656 56.090728759765625 -52.53079605102539 55.63926696777344 -52.53079605102539 55.63926696777344 C -52.53079605102539 55.63926696777344 -66.04240417480469 41.30432891845703 -66.67415618896484 40.1758918762207 C -67.30591583251953 39.047462463378906 -69.9573974609375 36.22544479370117 -69.9573974609375 36.22544479370117 L -67.6844482421875 36.112579345703125 L -64.65380096435547 38.482845306396484 C -64.65380096435547 38.482845306396484 -62.001991271972656 37.91848373413086 -60.48662185668945 38.708587646484375 C -58.97126007080078 39.49868392944336 -35.98834991455078 53.72038650512695 -34.347259521484375 54.62350845336914 C -32.706172943115234 55.52663803100586 -31.31661033630371 56.54232406616211 -31.31661033630371 56.54232406616211 L -29.801231384277344 56.54231643676758 Z" fill="url(#o)" transform="matrix(1 0 0 1 -0.0000310865 -0.00000475421)"/>
   <text x="77.12374962118436" y="60.81873703255608" font-family="Arial Narrow" font-size="1.2962703794608794" controller-class="Text_box" transform="matrix(-1 -1.39089e-16 -1.36024e-16 1 -0.0000295393 -0.00000611801)" text-anchor="start" height="0"><tspan x="0" y="1" newline=""><![CDATA[]]></tspan><tspan x="0" y="2.328125" newline=""><![CDATA[]]></tspan></text>
   <path transform="matrix(1 0 0 1 -16.2211 17.6759)" d="M -21.06840705871582 37.655723571777344 L -35.252803802490234 39.55755615234375 C -35.252803802490234 39.55755615234375 -35.4104118347168 38.360137939453125 -35.331607818603516 37.8670539855957 C -35.2528076171875 37.37397003173828 -35.252803802490234 37.092220306396484 -35.252803802490234 37.092220306396484 C -35.252803802490234 37.092220306396484 -43.684844970703125 28.14692497253418 -44.07914352416992 27.44206428527832 C -44.473426818847656 26.737215042114258 -46.12801742553711 24.976730346679688 -46.12801742553711 24.976730346679688 L -44.709571838378906 24.906295776367188 L -42.818267822265625 26.385475158691406 C -42.818267822265625 26.385475158691406 -41.16341018676758 26.033288955688477 -40.2177619934082 26.526348114013672 C -39.2721061706543 27.019407272338867 -24.930089950561523 35.894561767578125 -23.905651092529297 36.45780944824219 C -22.88120460510254 37.02105712890625 -22.01435089111328 37.655235290527344 -22.01435089111328 37.655235290527344 L -21.068702697753906 37.655235290527344 Z" fill="#4d4d4d" filter="url(#y)"/>
   <path d="M -41.18659210205078 51.62027359008789 L -40.459754943847656 51.295448303222656 M -55.056636810302734 42.41676330566406 L -55.96516799926758 42.84986114501953 M -50.8774528503418 44.852943420410156 L -52.02823257446289 45.12363815307617 M -47.48558807373047 46.91017532348633 L -48.515254974365234 47.23500442504883 M -43.36689758300781 49.292293548583984 L -44.578311920166016 49.508846282958984 M -36.94670867919922 54.05641174316406 L -56.87396240234375 42.146141052246094" fill="#5d575b" filter="url(#ab)" stroke="#6b605f" stroke-width="0.20939767164462636" transform="matrix(1 0 0 1 -0.0000310865 -0.00000475421)"/>
   <path d="M -60.9925651550293 46.36934280395508 L -59.417808532714844 45.82796859741211 L -59.23609924316406 45.44899368286133 L -60.689788818359375 44.04142761230469 M -55.2386360168457 48.3724479675293 L -56.450050354003906 49.130374908447266 M -54.63302993774414 50.86280822753906 L -54.69359588623047 50.971099853515625 L -53.300559997558594 49.99660110473633 M -51.36235809326172 51.8914680480957 L -52.63432693481445 52.75767517089844 M -52.33147430419922 55.30216979980469 L -49.48476791381836 53.569740295410156 L -56.934661865234375 46.369361877441406 L -58.26715850830078 47.289710998535156 L -51.05952453613281 54.544185638427734" fill="none" filter="url(#aa)" stroke="#808080" stroke-width="0.1495697654604474" transform="matrix(1 0 0 1 -0.0000310865 -0.00000475421)"/>
   <path d="M -64.74724578857422 38.62682342529297 C -64.74724578857422 38.62682342529297 -66.01920318603516 38.6268196105957 -66.20092010498047 39.22234344482422 L -66.38262176513672 39.817874908447266 C -66.38262176513672 39.817874908447266 -66.01921081542969 39.11407470703125 -65.47410583496094 39.005794525146484 C -64.9289779663086 38.89751434326172 -64.5655746459961 38.735103607177734 -64.74727630615234 38.626827239990234 Z" fill="#333" filter="url(#z)" transform="matrix(1 0 0 1 -0.0000310865 -0.00000475421)"/>
   <path d="M -65.53509521484375 38.30252456665039 Z" fill="none" stroke="#000" transform="matrix(1 0 0 1 -0.0000310865 -0.00000475421)"/>
   <path d="M -30.43299674987793 56.269744873046875 L -52.44853973388672 59.221466064453125 C -52.44853973388672 59.221466064453125 -52.69315719604492 57.363014221191406 -52.57084655761719 56.59771728515625 C -52.44855499267578 55.832420349121094 -52.44853591918945 55.39518356323242 -52.44853591918945 55.39518356323242 C -52.44853591918945 55.39518356323242 -65.53509521484375 41.5108757019043 -66.14681243896484 40.41826629638672 C -66.75853729248047 39.32566452026367 -69.32681274414062 36.59196853637695 -69.32681274414062 36.59196853637695 L -67.12525177001953 36.482643127441406 L -64.1898422241211 38.77843475341797 C -64.1898422241211 38.77843475341797 -61.621376037597656 38.2318229675293 -60.153663635253906 38.99708938598633 C -58.68595886230469 39.7623405456543 -36.426368713378906 53.536590576171875 -34.835899353027344 54.41143035888672 C -33.24542236328125 55.2862663269043 -31.90048599243164 56.2698974609375 -31.90048599243164 56.2698974609375 L -30.43279266357422 56.2698974609375 Z" fill="none" filter="url(#x)" stroke="#000" stroke-width="0.22624919855317013" transform="matrix(1 0 0 1 -0.0000310865 -0.00000475421)"/>
  </g>
  <path d="M 35.88690948486328 157.81207275390625 C 35.88690948486328 157.81207275390625 59.96047592163086 158.29837036132812 78.32076263427734 155.2591552734375 C 96.68102264404297 152.21995544433594 151.62945556640625 144.9258270263672 153.80450439453125 144.31787109375 C 155.9795379638672 143.70994567871094 160.4687957763672 142.61590576171875 160.4687957763672 142.61590576171875 C 160.4687957763672 142.61590576171875 160.46881103515625 141.76492309570312 161.01283264160156 141.5217742919922 C 161.55685424804688 141.27867126464844 164.54913330078125 140.4276580810547 163.05296325683594 139.45510864257812 C 161.55677795410156 138.48257446289062 155.4364471435547 137.63157653808594 151.49229431152344 137.9962921142578 C 147.54811096191406 138.36099243164062 58.734310150146484 151.125732421875 58.734310150146484 151.125732421875 C 58.734310150146484 151.125732421875 58.734310150146484 152.5845489501953 57.37422180175781 152.5845489501953 C 56.014129638671875 152.58456420898438 41.46128845214844 155.25909423828125 41.46128845214844 155.25909423828125 L 41.18927001953125 154.65126037597656 L 35.340919494628906 156.3532257080078 L 35.88494110107422 157.81207275390625 Z" fill="#0997f9" stroke="#000" stroke-width="0.09971315738576918" transform="matrix(1 0 0 1 2.42252e-8 2.59045e-7)"/>
  <path transform="matrix(0.99065 -0.136427 0.136427 0.99065 132.025 90.301)" d="M 5.300658226013184 53.94530487060547 C 5.304754734039307 54.20228958129883 8.511059761047363 54.45667266845703 12.462178230285645 54.51348114013672 C 16.41329574584961 54.57028579711914 19.6129150390625 54.40801239013672 19.608789443969727 54.15101623535156 C 19.604679107666016 53.89402389526367 16.398418426513672 53.639652252197266 12.44725513458252 53.58283615112305 C 8.496135711669922 53.526031494140625 5.296532154083252 53.68831253051758 5.300658226013184 53.94530487060547 Z" fill="#fff" filter="url(#ad)"/>
  <path transform="matrix(0.986343 -0.164705 0.164705 0.986343 130.197 86.144)" d="M -64.97875213623047 57.1217041015625 C -64.9770736694336 57.20901107788086 -51.202239990234375 57.51803207397461 -34.21177673339844 57.811920166015625 C -17.2213134765625 58.105796813964844 -3.449202537536621 58.27325439453125 -3.4508907794952393 58.18594741821289 C -3.4525623321533203 58.098636627197266 -17.227388381958008 57.789615631103516 -34.21784973144531 57.4957275390625 C -51.208335876464844 57.20183181762695 -64.98042297363281 57.03437805175781 -64.97875213623047 57.1217041015625 Z" fill="#fff" filter="url(#ac)"/>
  <path d="M 166.79412841796875 143.6787109375 C 166.79412841796875 143.6787109375 154.7829132080078 148.3831787109375 144.39120483398438 149.5895538330078 C 133.99952697753906 150.79591369628906 94.86243438720703 156.34478759765625 86.76364135742188 157.430419921875 C 78.66484832763672 158.51605224609375 64.36074829101562 160.32557678222656 60.04243087768555 160.5668182373047 C 55.7241325378418 160.80801391601562 49.92063522338867 160.32554626464844 49.92063522338867 160.32554626464844 C 49.92063522338867 160.32554626464844 63.01158905029297 162.25563049316406 66.79039001464844 161.77310180664062 C 70.56918334960938 161.2905731201172 86.35917663574219 159.60182189941406 87.30387878417969 159.2398681640625 C 88.24858093261719 158.87794494628906 89.751220703125 158.50607299804688 90.83072662353516 158.1442108154297 C 91.91024780273438 157.7822723388672 108.0872573852539 154.8972625732422 109.84159088134766 154.8972625732422 C 111.5959243774414 154.8972625732422 113.8902587890625 154.5353546142578 113.48532104492188 155.37977600097656 C 113.08038330078125 156.22418212890625 111.59593200683594 156.70672607421875 111.59593200683594 156.70672607421875 C 111.59593200683594 156.70672607421875 115.7796630859375 156.46543884277344 117.1290512084961 155.5004119873047 C 118.47844696044922 154.53541564941406 122.66218566894531 153.44972229003906 124.68663024902344 153.2084503173828 C 126.71109008789062 152.96713256835938 149.54803466796875 150.27381896972656 150.73374938964844 150.07203674316406 C 152.02706909179688 149.8520965576172 158.61045837402344 148.3588104248047 159.7758026123047 147.90077209472656 C 163.7396240234375 146.3428192138672 164.09291076660156 145.77720642089844 165.03758239746094 145.0535125732422 C 165.9822998046875 144.32981872558594 167.3332977294922 143.67886352539062 166.79345703125 143.67884826660156 Z" fill="#999" transform="matrix(1 0 0 1 2.42252e-8 2.59045e-7)"/>
  <path transform="matrix(0.992351 -0.12345 0.12345 0.992351 2.42252e-8 2.59045e-7)" d="M 135.02554321289062 161.35714721679688 L 134.04791259765625 161.34439086914062 C 133.69004821777344 161.33975219726562 133.40377807617188 161.59616088867188 133.40843200683594 161.9170684814453 L 133.44898986816406 164.71063232421875 C 133.45367431640625 165.03158569335938 133.7475128173828 165.29551696777344 134.10537719726562 165.30020141601562 L 135.0830078125 165.31292724609375 C 135.44082641601562 165.31759643554688 135.7271270751953 165.06118774414062 135.72247314453125 164.74026489257812 L 135.68191528320312 161.94671630859375 C 135.6772003173828 161.62574768066406 135.3833465576172 161.36180114746094 135.02554321289062 161.35714721679688" fill="none" stroke="#fff" stroke-width="0.15469136917121099"/>
  <path transform="matrix(0.979027 -0.203729 0.203729 0.979027 2.42252e-8 2.59045e-7)" d="M 118.06942749023438 173.28790283203125 L 117.68734741210938 173.27978515625 C 117.59063720703125 173.27774047851562 117.51393127441406 173.3467559814453 117.51597595214844 173.43399047851562 L 117.52413177490234 173.77871704101562 C 117.52617645263672 173.865966796875 117.60623931884766 173.93833923339844 117.7029037475586 173.9403839111328 L 118.08499908447266 173.94850158691406 C 118.18169403076172 173.95059204101562 118.25837707519531 173.8815460205078 118.25634765625 173.79429626464844 L 118.24819946289062 173.44960021972656 C 118.24614715576172 173.3623504638672 118.16610717773438 173.28997802734375 118.06942749023438 173.28790283203125" fill="#ccc"/>
  <path transform="matrix(0.994132 -0.10817 0.10817 0.994132 2.42252e-8 2.59045e-7)" d="M 133.1370849609375 161.17315673828125 L 132.7537841796875 161.16876220703125 C 132.6567840576172 161.16766357421875 132.5790252685547 161.2372283935547 132.5801544189453 161.3241424560547 L 132.58453369140625 161.66763305664062 C 132.5856475830078 161.75457763671875 132.6651611328125 161.825927734375 132.7621612548828 161.82701110839844 L 133.14547729492188 161.83143615722656 C 133.242431640625 161.83250427246094 133.32017517089844 161.76296997070312 133.31906127929688 161.67604064941406 L 133.31466674804688 161.33255004882812 C 133.3135528564453 161.24560546875 133.2340545654297 161.1742401123047 133.1370849609375 161.17315673828125" fill="#ccc"/>
  <path transform="matrix(0.999097 -0.0424799 0.0424799 0.999097 2.42252e-8 2.59045e-7)" d="M 142.30642700195312 152.2042694091797 L 141.9227294921875 152.20252990722656 C 141.82565307617188 152.20211791992188 141.74728393554688 152.27215576171875 141.74774169921875 152.35897827148438 L 141.74945068359375 152.7020721435547 C 141.74989318847656 152.78890991210938 141.82896423339844 152.85963439941406 141.92604064941406 152.86007690429688 L 142.3097381591797 152.86178588867188 C 142.40684509277344 152.86224365234375 142.48519897460938 152.79222106933594 142.4847412109375 152.7053985595703 L 142.48301696777344 152.36228942871094 C 142.4825897216797 152.2754364013672 142.40353393554688 152.20472717285156 142.30642700195312 152.2042694091797" fill="#ccc"/>
  <path transform="matrix(0.990904 -0.134571 0.134571 0.990904 2.42252e-8 2.59045e-7)" d="M 126.45680236816406 164.6980743408203 L 126.07378387451172 164.69264221191406 C 125.97683715820312 164.69126892089844 125.8993911743164 164.76068115234375 125.90077209472656 164.84765625 L 125.90618133544922 165.19143676757812 C 125.90756225585938 165.27842712402344 125.98726654052734 165.35003662109375 126.08419799804688 165.35140991210938 L 126.46723175048828 165.3568572998047 C 126.56414031982422 165.35824584960938 126.6416015625 165.28883361816406 126.64022064208984 165.20184326171875 L 126.63480377197266 164.85806274414062 C 126.63341522216797 164.77108764648438 126.55371856689453 164.69944763183594 126.45680236816406 164.6980743408203" fill="#ccc"/>
  <path transform="matrix(0.99631 -0.08583 0.08583 0.99631 2.42252e-8 2.59045e-7)" d="M 133.1949462890625 158.3957061767578 L 132.8114776611328 158.3922119140625 C 132.71444702148438 158.391357421875 132.63648986816406 158.46102905273438 132.6373748779297 158.5479278564453 L 132.64083862304688 158.89125061035156 C 132.64175415039062 158.9781494140625 132.7211151123047 159.0492706298828 132.8181610107422 159.05015563964844 L 133.2016143798828 159.05364990234375 C 133.2986602783203 159.05453491210938 133.37661743164062 158.9848175048828 133.37571716308594 158.89793395996094 L 133.37225341796875 158.5546112060547 C 133.371337890625 158.4677276611328 133.29196166992188 158.39659118652344 133.1949462890625 158.3957061767578" fill="#ccc"/>
  <path transform="matrix(0.99631 -0.08583 0.08583 0.99631 2.42252e-8 2.59045e-7)" d="M 131.99703979492188 158.48251342773438 L 131.61358642578125 158.47903442382812 C 131.51654052734375 158.4781494140625 131.4385986328125 158.5478515625 131.43946838378906 158.63473510742188 L 131.4429473876953 158.97805786132812 C 131.44384765625 159.06492614746094 131.52322387695312 159.1360626220703 131.62026977539062 159.13697814941406 L 132.00372314453125 159.1404571533203 C 132.1007537841797 159.14134216308594 132.1787109375 159.07162475585938 132.17782592773438 158.9847412109375 L 132.17433166503906 158.6414031982422 C 132.1734619140625 158.55455017089844 132.09405517578125 158.48338317871094 131.99703979492188 158.48251342773438" fill="#ccc"/>
  <path transform="matrix(0.99631 -0.08583 0.08583 0.99631 2.42252e-8 2.59045e-7)" d="M 122.69561004638672 158.97100830078125 L 122.31212615966797 158.967529296875 C 122.21509552001953 158.9666290283203 122.13714599609375 159.03636169433594 122.13803100585938 159.12326049804688 L 122.14151000976562 159.46656799316406 C 122.14238739013672 159.55345153808594 122.2217788696289 159.62457275390625 122.3188247680664 159.62545776367188 L 122.70227813720703 159.6289520263672 C 122.79930877685547 159.62982177734375 122.87727355957031 159.56011962890625 122.87638854980469 159.4732208251953 L 122.8729019165039 159.1299285888672 C 122.87203216552734 159.04302978515625 122.79266357421875 158.97189331054688 122.69561004638672 158.97100830078125" fill="#ccc"/>
  <path transform="matrix(0.990572 -0.13699 0.13699 0.990572 2.42252e-8 2.59045e-7)" d="M 110.49386596679688 163.66468811035156 L 109.27102661132812 163.6185302734375 C 108.91336822509766 163.6050262451172 108.62761688232422 163.85430908203125 108.63277435302734 164.17535400390625 L 108.67770385742188 166.9698944091797 C 108.68286895751953 167.29090881347656 108.97699737548828 167.56210327148438 109.33467864990234 167.57559204101562 L 110.55747985839844 167.62176513671875 C 110.91515350341797 167.63526916503906 111.200927734375 167.38597106933594 111.19575500488281 167.06492614746094 L 111.15082550048828 164.27041625976562 C 111.14564514160156 163.9493865966797 110.85152435302734 163.67819213867188 110.49386596679688 163.66468811035156" fill="none" stroke="#fff" stroke-width="0.1627591161781785"/>
  <path transform="matrix(0.99631 -0.08583 0.08583 0.99631 2.42252e-8 2.59045e-7)" d="M 115.63001251220703 159.32965087890625 L 115.24652862548828 159.32618713378906 C 115.14950561523438 159.32528686523438 115.07154846191406 159.39501953125 115.07243347167969 159.48190307617188 L 115.07591247558594 159.82521057128906 C 115.07678985595703 159.91207885742188 115.15616607666016 159.9832305908203 115.25321197509766 159.98411560058594 L 115.63666534423828 159.9875946044922 C 115.73371124267578 159.98849487304688 115.8116683959961 159.9187774658203 115.810791015625 159.8319091796875 L 115.80731201171875 159.4885711669922 C 115.8064193725586 159.40167236328125 115.72704315185547 159.3305206298828 115.63001251220703 159.32965087890625" fill="#ccc"/>
  <path transform="matrix(0.99631 -0.08583 0.08583 0.99631 2.42252e-8 2.59045e-7)" d="M 114.33634185791016 159.4609375 L 113.95286560058594 159.4574432373047 C 113.85585021972656 159.45657348632812 113.77788543701172 159.52626037597656 113.77873992919922 159.6131591796875 L 113.78224182128906 159.95648193359375 C 113.78312683105469 160.04336547851562 113.86251068115234 160.11451721191406 113.9595718383789 160.1154022216797 L 114.34300231933594 160.11886596679688 C 114.44004821777344 160.1197509765625 114.51800537109375 160.050048828125 114.51713562011719 159.96316528320312 L 114.51362609863281 159.61984252929688 C 114.51274871826172 159.532958984375 114.4333724975586 159.46182250976562 114.33634185791016 159.4609375" fill="#ccc"/>
  <path transform="matrix(0.99631 -0.08583 0.08583 0.99631 2.42252e-8 2.59045e-7)" d="M 113.18550872802734 159.5101318359375 L 112.80205535888672 159.50665283203125 C 112.70499420166016 159.50576782226562 112.62704467773438 159.5754852294922 112.62794494628906 159.662353515625 L 112.63142395019531 160.00567626953125 C 112.63229370117188 160.09255981445312 112.71167755126953 160.1636962890625 112.80872344970703 160.1645965576172 L 113.19218444824219 160.16807556152344 C 113.28922271728516 160.1689453125 113.36717224121094 160.09922790527344 113.36629486083984 160.01234436035156 L 113.3628158569336 159.66903686523438 C 113.3619155883789 159.5821533203125 113.28253936767578 159.51101684570312 113.18550872802734 159.5101318359375" fill="#ccc"/>
  <path transform="matrix(0.99631 -0.08583 0.08583 0.99631 2.42252e-8 2.59045e-7)" d="M 112.0496597290039 159.56060791015625 L 111.66620635986328 159.55712890625 C 111.56916809082031 159.55624389648438 111.4912109375 159.6259765625 111.49208068847656 159.71286010742188 L 111.49556732177734 160.05616760253906 C 111.49646759033203 160.14305114746094 111.57584381103516 160.2141876220703 111.67286682128906 160.21507263183594 L 112.05633544921875 160.2185516357422 C 112.15338897705078 160.2194366455078 112.23133087158203 160.1497344970703 112.2304458618164 160.0628204345703 L 112.22697448730469 159.71954345703125 C 112.22608184814453 159.6326446533203 112.14671325683594 159.5615234375 112.0496597290039 159.56060791015625" fill="#ccc"/>
  <path transform="matrix(0.99631 -0.08583 0.08583 0.99631 2.42252e-8 2.59045e-7)" d="M 110.91265869140625 159.62445068359375 L 110.52920532226562 159.62100219726562 C 110.43217468261719 159.62010192871094 110.35420989990234 159.68983459472656 110.35509490966797 159.77670288085938 L 110.35857391357422 160.12001037597656 C 110.35944366455078 160.2069091796875 110.4388427734375 160.2780303955078 110.53588104248047 160.2789306640625 L 110.91935729980469 160.28240966796875 C 111.01638793945312 160.28329467773438 111.09432983398438 160.21359252929688 111.09344482421875 160.12672424316406 L 111.0899658203125 159.7833709716797 C 111.08909606933594 159.69650268554688 111.00971221923828 159.62535095214844 110.91265869140625 159.62445068359375" fill="#ccc"/>
  <path transform="matrix(0.99631 -0.08583 0.08583 0.99631 2.42252e-8 2.59045e-7)" d="M 109.68811798095703 159.65382385253906 L 109.30465698242188 159.65036010742188 C 109.20762634277344 159.64947509765625 109.12966918945312 159.7191925048828 109.13056182861328 159.8060760498047 L 109.134033203125 160.14938354492188 C 109.13491821289062 160.2362518310547 109.21429443359375 160.3074188232422 109.31134033203125 160.30828857421875 L 109.6948013305664 160.311767578125 C 109.7918472290039 160.31265258789062 109.86979675292969 160.24293518066406 109.86891174316406 160.1560516357422 L 109.86542510986328 159.81272888183594 C 109.86455535888672 159.7258758544922 109.78514862060547 159.6547088623047 109.68811798095703 159.65382385253906" fill="#ccc"/>
  <path transform="matrix(0.99631 -0.08583 0.08583 0.99631 2.42252e-8 2.59045e-7)" d="M 108.58224487304688 159.7068634033203 L 108.19876861572266 159.70339965820312 C 108.10172271728516 159.7025146484375 108.0237808227539 159.77224731445312 108.024658203125 159.85911560058594 L 108.02813720703125 160.20242309570312 C 108.02903747558594 160.289306640625 108.10841369628906 160.36045837402344 108.20543670654297 160.361328125 L 108.58891296386719 160.36480712890625 C 108.68595123291016 160.36569213867188 108.76390838623047 160.2959747314453 108.76301574707031 160.20912170410156 L 108.75952911376953 159.8657989501953 C 108.7586669921875 159.77891540527344 108.67926025390625 159.707763671875 108.58224487304688 159.7068634033203" fill="#ccc"/>
  <path transform="matrix(0.99631 -0.08583 0.08583 0.99631 2.42252e-8 2.59045e-7)" d="M 105.03645324707031 159.8868865966797 L 104.65299224853516 159.88339233398438 C 104.55594635009766 159.8824920654297 104.47798919677734 159.9522247314453 104.47889709472656 160.03909301757812 L 104.48236083984375 160.38243103027344 C 104.48326110839844 160.46929931640625 104.56263732910156 160.54043579101562 104.65967559814453 160.5413360595703 L 105.04313659667969 160.54481506347656 C 105.1401596069336 160.5457000732422 105.21813201904297 160.4759979248047 105.21724700927734 160.3890838623047 L 105.21375274658203 160.0457763671875 C 105.2128677368164 159.95887756347656 105.13350677490234 159.88775634765625 105.03645324707031 159.8868865966797" fill="#ccc"/>
  <path transform="matrix(0.99631 -0.08583 0.08583 0.99631 2.42252e-8 2.59045e-7)" d="M 103.84991455078125 160.0004119873047 L 103.46646118164062 159.99691772460938 C 103.36941528320312 159.9960174560547 103.29147338867188 160.0657501220703 103.29235076904297 160.15261840820312 L 103.29581451416016 160.4959716796875 C 103.29671478271484 160.58282470703125 103.37608337402344 160.6539764404297 103.47313690185547 160.6548614501953 L 103.85659790039062 160.65834045410156 C 103.95364379882812 160.65924072265625 104.03158569335938 160.5895233154297 104.03071594238281 160.50262451171875 L 104.02721405029297 160.1593017578125 C 104.02632904052734 160.07240295410156 103.94694519042969 160.00128173828125 103.84991455078125 160.0004119873047" fill="#ccc"/>
  <path transform="matrix(0.99631 -0.08583 0.08583 0.99631 2.42252e-8 2.59045e-7)" d="M 102.67030334472656 160.0336151123047 L 102.28683471679688 160.03013610839844 C 102.18978118896484 160.02926635742188 102.1118392944336 160.09898376464844 102.11272430419922 160.18585205078125 L 102.1162109375 160.52915954589844 C 102.11709594726562 160.61607360839844 102.19647979736328 160.68719482421875 102.29351806640625 160.68807983398438 L 102.67698669433594 160.6915740966797 C 102.7740249633789 160.69244384765625 102.85197448730469 160.6227569580078 102.85110473632812 160.53587341308594 L 102.84759521484375 160.1925506591797 C 102.84673309326172 160.10565185546875 102.767333984375 160.03451538085938 102.67030334472656 160.0336151123047" fill="#ccc"/>
  <path transform="matrix(0.99631 -0.08583 0.08583 0.99631 2.42252e-8 2.59045e-7)" d="M 101.48835754394531 160.0936279296875 L 101.10490417480469 160.0901336669922 C 101.00787353515625 160.08924865722656 100.92991638183594 160.1589813232422 100.9308090209961 160.24586486816406 L 100.93428039550781 160.58917236328125 C 100.93516540527344 160.6760711669922 101.01455688476562 160.74720764160156 101.11158752441406 160.74806213378906 L 101.49505615234375 160.75155639648438 C 101.59208679199219 160.75242614746094 101.67002868652344 160.6827392578125 101.66915130615234 160.59585571289062 L 101.6656723022461 160.2525177001953 C 101.664794921875 160.1656494140625 101.58541107177734 160.09449768066406 101.48835754394531 160.0936279296875" fill="#ccc"/>
  <path transform="matrix(0.99631 -0.08583 0.08583 0.99631 2.42252e-8 2.59045e-7)" d="M 100.39861297607422 160.13458251953125 L 100.01514434814453 160.13108825683594 C 99.91812133789062 160.13021850585938 99.84014892578125 160.199951171875 99.84103393554688 160.2867889404297 L 99.84451293945312 160.630126953125 C 99.84540557861328 160.71701049804688 99.9247817993164 160.78814697265625 100.02182006835938 160.78904724121094 L 100.40528106689453 160.7925262451172 C 100.50231170654297 160.79339599609375 100.58027648925781 160.72369384765625 100.57939910888672 160.63681030273438 L 100.57592010498047 160.2935028076172 C 100.57503509521484 160.20660400390625 100.49564361572266 160.13546752929688 100.39861297607422 160.13458251953125" fill="#ccc"/>
  <path transform="matrix(0.99631 -0.08583 0.08583 0.99631 2.42252e-8 2.59045e-7)" d="M 99.24664306640625 160.19717407226562 L 98.8631820678711 160.19369506835938 C 98.76614379882812 160.1927947998047 98.68818664550781 160.2625274658203 98.6890640258789 160.3494110107422 L 98.69253540039062 160.69273376464844 C 98.69344329833984 160.7795867919922 98.7728042602539 160.8507537841797 98.86982727050781 160.85162353515625 L 99.25331115722656 160.8551025390625 C 99.35037231445312 160.85598754882812 99.42830657958984 160.78628540039062 99.42743682861328 160.6993865966797 L 99.42393493652344 160.3560791015625 C 99.42304992675781 160.26919555664062 99.34368133544922 160.1980438232422 99.24664306640625 160.19717407226562" fill="#ccc"/>
  <path transform="matrix(0.99631 -0.08583 0.08583 0.99631 2.42252e-8 2.59045e-7)" d="M 98.0647201538086 160.25717163085938 L 97.68125915527344 160.25367736816406 C 97.5842056274414 160.25277709960938 97.50626373291016 160.32252502441406 97.50712585449219 160.40940856933594 L 97.5106201171875 160.7527313232422 C 97.51150512695312 160.839599609375 97.59088134765625 160.91075134277344 97.68791961669922 160.91163635253906 L 98.07139587402344 160.91510009765625 C 98.1684341430664 160.91600036621094 98.2463607788086 160.8462677001953 98.24549865722656 160.7593994140625 L 98.24200439453125 160.4160919189453 C 98.24112701416016 160.32920837402344 98.16175079345703 160.25804138183594 98.0647201538086 160.25717163085938" fill="#ccc"/>
  <path transform="matrix(0.99631 -0.08583 0.08583 0.99631 2.42252e-8 2.59045e-7)" d="M 96.79293060302734 160.30938720703125 L 96.40949249267578 160.305908203125 C 96.31243896484375 160.30502319335938 96.23448181152344 160.37477111816406 96.23536682128906 160.46163940429688 L 96.23886108398438 160.80496215820312 C 96.23973083496094 160.891845703125 96.31912231445312 160.96298217773438 96.4161605834961 160.9638671875 L 96.79962158203125 160.96734619140625 C 96.89665985107422 160.96823120117188 96.974609375 160.8985137939453 96.97372436523438 160.8116455078125 L 96.97024536132812 160.4683380126953 C 96.9693603515625 160.38143920898438 96.88997650146484 160.31028747558594 96.79293060302734 160.30938720703125" fill="#ccc"/>
  <path transform="matrix(0.99631 -0.08583 0.08583 0.99631 2.42252e-8 2.59045e-7)" d="M 95.61100769042969 160.36940002441406 L 95.22754669189453 160.3659210205078 C 95.13050842285156 160.3650360107422 95.05255126953125 160.4347686767578 95.05343627929688 160.52163696289062 L 95.05692291259766 160.86497497558594 C 95.05780029296875 160.95184326171875 95.1371841430664 161.02297973632812 95.23422241210938 161.02386474609375 L 95.61768341064453 161.02734375 C 95.71472930908203 161.02822875976562 95.79268646240234 160.95851135253906 95.79179382324219 160.87164306640625 L 95.78831481933594 160.52833557128906 C 95.78744506835938 160.44143676757812 95.70805358886719 160.3702850341797 95.61100769042969 160.36940002441406" fill="#ccc"/>
  <path transform="matrix(0.99631 -0.08583 0.08583 0.99631 2.42252e-8 2.59045e-7)" d="M 94.54659271240234 160.4665069580078 L 94.16313171386719 160.46302795410156 C 94.06607055664062 160.46212768554688 93.98812103271484 160.5318603515625 93.98900604248047 160.61875915527344 L 93.99248504638672 160.96206665039062 C 93.9933853149414 161.04896545410156 94.07275390625 161.12008666992188 94.16981506347656 161.12095642089844 L 94.55326843261719 161.12445068359375 C 94.65030670166016 161.1253204345703 94.7282485961914 161.05563354492188 94.72737884521484 160.96873474121094 L 94.72388458251953 160.62542724609375 C 94.72301483154297 160.53854370117188 94.64363098144531 160.4673614501953 94.54659271240234 160.4665069580078" fill="#ccc"/>
  <path transform="matrix(0.99631 -0.08583 0.08583 0.99631 2.42252e-8 2.59045e-7)" d="M 93.36466217041016 160.5264892578125 L 92.98119354248047 160.52301025390625 C 92.88417053222656 160.5221405029297 92.80622100830078 160.5918731689453 92.80708312988281 160.6787567138672 L 92.8105697631836 161.0220489501953 C 92.81145477294922 161.1089324951172 92.8908462524414 161.18008422851562 92.98787689208984 161.1809539794922 L 93.37134552001953 161.18443298339844 C 93.46839141845703 161.185302734375 93.54634094238281 161.1156005859375 93.54544830322266 161.0287322998047 L 93.54196166992188 160.68540954589844 C 93.54110717773438 160.59854125976562 93.46170806884766 160.52735900878906 93.36466217041016 160.5264892578125" fill="#ccc"/>
  <path transform="matrix(0.99631 -0.08583 0.08583 0.99631 2.42252e-8 2.59045e-7)" d="M 92.30254364013672 160.5968017578125 L 91.91908264160156 160.59335327148438 C 91.82205200195312 160.5924530029297 91.74407196044922 160.6621551513672 91.74496459960938 160.7490692138672 L 91.74845123291016 161.09237670898438 C 91.74934387207031 161.1792449951172 91.82870483398438 161.25038146972656 91.92576599121094 161.25125122070312 L 92.3092269897461 161.25474548339844 C 92.40625762939453 161.25564575195312 92.48421478271484 161.1859130859375 92.48333740234375 161.0990447998047 L 92.47985076904297 160.7557373046875 C 92.47896575927734 160.66883850097656 92.39956665039062 160.59768676757812 92.30254364013672 160.5968017578125" fill="#ccc"/>
  <path transform="matrix(0.99631 -0.08583 0.08583 0.99631 2.42252e-8 2.59045e-7)" d="M 91.06070709228516 160.6516571044922 L 90.67725372314453 160.64816284179688 C 90.58021545410156 160.64727783203125 90.50225830078125 160.71701049804688 90.50313568115234 160.8038787841797 L 90.50662994384766 161.147216796875 C 90.50749969482422 161.2340850830078 90.58690643310547 161.30520629882812 90.68392181396484 161.30609130859375 L 91.06739807128906 161.3095703125 C 91.1644287109375 161.3104705810547 91.24237060546875 161.2407684326172 91.24150848388672 161.15386962890625 L 91.2380142211914 160.81056213378906 C 91.23712158203125 160.72366333007812 91.15775299072266 160.65252685546875 91.06070709228516 160.6516571044922" fill="#ccc"/>
  <path transform="matrix(0.99631 -0.08583 0.08583 0.99631 2.42252e-8 2.59045e-7)" d="M 89.82119750976562 160.67970275878906 L 89.43773651123047 160.6762237548828 C 89.34068298339844 160.6753387451172 89.26274108886719 160.7450408935547 89.26361846923828 160.83193969726562 L 89.2671127319336 161.17526245117188 C 89.26798248291016 161.26214599609375 89.34737396240234 161.33326721191406 89.44440460205078 161.3341522216797 L 89.82787322998047 161.33763122558594 C 89.92491149902344 161.33853149414062 90.00287628173828 161.26881408691406 90.00198364257812 161.1819305419922 L 89.99849700927734 160.83859252929688 C 89.99761962890625 160.751708984375 89.9182357788086 160.68057250976562 89.82119750976562 160.67970275878906" fill="#ccc"/>
  <path transform="matrix(0.99631 -0.08583 0.08583 0.99631 2.42252e-8 2.59045e-7)" d="M 88.69686889648438 160.7716522216797 L 88.31341552734375 160.76817321777344 C 88.21637725830078 160.7672882080078 88.1384048461914 160.83700561523438 88.1393051147461 160.9238739013672 L 88.14278411865234 161.26718139648438 C 88.14366912841797 161.35406494140625 88.22303771972656 161.42520141601562 88.32007598876953 161.4261016845703 L 88.70355224609375 161.42959594726562 C 88.80059051513672 161.43048095703125 88.8785400390625 161.36074829101562 88.87765502929688 161.27386474609375 L 88.8741683959961 160.9305419921875 C 88.873291015625 160.84365844726562 88.79389953613281 160.77252197265625 88.69686889648438 160.7716522216797" fill="#ccc"/>
  <path transform="matrix(0.990572 -0.13699 0.13699 0.990572 2.42252e-8 2.59045e-7)" d="M 77.67610931396484 163.5199737548828 L 76.45327758789062 163.4738311767578 C 76.0956039428711 163.46031188964844 75.80985260009766 163.7095947265625 75.81501770019531 164.03065490722656 L 75.85997772216797 166.82518005371094 C 75.86512756347656 167.14620971679688 76.15926361083984 167.4174041748047 76.51692962646484 167.43089294433594 L 77.73975372314453 167.47703552246094 C 78.097412109375 167.4905548095703 78.38317108154297 167.2412567138672 78.37801361083984 166.9202117919922 L 78.33306884765625 164.12570190429688 C 78.32791137695312 163.80467224121094 78.03378295898438 163.5334930419922 77.67610931396484 163.5199737548828" fill="none" stroke="#fff" stroke-width="0.1627591161781785"/>
  <path transform="matrix(0.99631 -0.08583 0.08583 0.99631 2.42252e-8 2.59045e-7)" d="M 80.57316589355469 161.20449829101562 L 80.189697265625 161.20101928710938 C 80.09264373779297 161.20013427734375 80.01469421386719 161.26983642578125 80.01557159423828 161.35671997070312 L 80.0190658569336 161.70005798339844 C 80.01994323730469 161.78692626953125 80.09931945800781 161.8580780029297 80.19637298583984 161.85894775390625 L 80.57982635498047 161.8624267578125 C 80.6768569946289 161.8633270263672 80.75481414794922 161.79359436035156 80.75395202636719 161.7067413330078 L 80.75045013427734 161.36341857910156 C 80.74957275390625 161.2765350341797 80.67018127441406 161.20538330078125 80.57316589355469 161.20449829101562" fill="#ccc"/>
  <path transform="matrix(0.99631 -0.08583 0.08583 0.99631 2.42252e-8 2.59045e-7)" d="M 79.4810791015625 161.27223205566406 L 79.09761047363281 161.2687530517578 C 79.00057220458984 161.26785278320312 78.9226303100586 161.3376007080078 78.92350769042969 161.42445373535156 L 78.9269790649414 161.76779174804688 C 78.92786407470703 161.85464477539062 79.00726318359375 161.92581176757812 79.10429382324219 161.92669677734375 L 79.48774719238281 161.93017578125 C 79.58480834960938 161.93106079101562 79.66273498535156 161.86134338378906 79.66185760498047 161.7744598388672 L 79.65837097167969 161.43115234375 C 79.65750885009766 161.34426879882812 79.57810974121094 161.2731170654297 79.4810791015625 161.27223205566406" fill="#ccc"/>
  <path transform="matrix(0.99631 -0.08583 0.08583 0.99631 2.42252e-8 2.59045e-7)" d="M 78.08489990234375 161.36770629882812 L 77.701416015625 161.3642120361328 C 77.6043930053711 161.36334228515625 77.52642822265625 161.4330596923828 77.52731323242188 161.51995849609375 L 77.53079986572266 161.86328125 C 77.53168487548828 161.95013427734375 77.6110610961914 162.02130126953125 77.70809173583984 162.02215576171875 L 78.09156799316406 162.02565002441406 C 78.18860626220703 162.02651977539062 78.26657104492188 161.9568328857422 78.26567077636719 161.86993408203125 L 78.26219940185547 161.52664184570312 C 78.26131439208984 161.43972778320312 78.18192291259766 161.36859130859375 78.08489990234375 161.36770629882812" fill="#ccc"/>
  <path transform="matrix(0.99631 -0.08583 0.08583 0.99631 2.42252e-8 2.59045e-7)" d="M 77.00664520263672 161.27484130859375 L 76.62322235107422 161.27133178710938 C 76.52616882324219 161.27047729492188 76.44819641113281 161.34017944335938 76.44908142089844 161.4270477294922 L 76.45257568359375 161.77037048339844 C 76.4534683227539 161.8572540283203 76.53284454345703 161.92840576171875 76.62987518310547 161.92929077148438 L 77.01334381103516 161.93276977539062 C 77.11038208007812 161.93365478515625 77.18832397460938 161.86392211914062 77.18743133544922 161.7770538330078 L 77.18396759033203 161.43373107910156 C 77.18307495117188 161.34686279296875 77.10369873046875 161.2757110595703 77.00664520263672 161.27484130859375" fill="#ccc"/>
  <path transform="matrix(0.99631 -0.08583 0.08583 0.99631 2.42252e-8 2.59045e-7)" d="M 75.90996551513672 161.3961181640625 L 75.52652740478516 161.3926239013672 C 75.4294662475586 161.39173889160156 75.35151672363281 161.46145629882812 75.35240173339844 161.54833984375 L 75.35589599609375 161.89166259765625 C 75.35676574707031 161.97854614257812 75.4361572265625 162.04969787597656 75.53319549560547 162.05055236816406 L 75.9166488647461 162.05404663085938 C 76.01370239257812 162.05491638183594 76.09165954589844 161.98521423339844 76.09075927734375 161.89833068847656 L 76.08727264404297 161.55499267578125 C 76.08638763427734 161.46810913085938 76.00702667236328 161.39695739746094 75.90996551513672 161.3961181640625" fill="#ccc"/>
  <path transform="matrix(0.99631 -0.08583 0.08583 0.99631 2.42252e-8 2.59045e-7)" d="M 74.75338745117188 161.51220703125 L 74.36993408203125 161.5087432861328 C 74.27289581298828 161.50784301757812 74.19491577148438 161.57757568359375 74.1958236694336 161.6644287109375 L 74.19931030273438 162.00778198242188 C 74.2001953125 162.0946502685547 74.27957153320312 162.16578674316406 74.3766098022461 162.1666717529297 L 74.76007080078125 162.17015075683594 C 74.85710906982422 162.17103576660156 74.93507385253906 162.10133361816406 74.93417358398438 162.0144500732422 L 74.93069458007812 161.67112731933594 C 74.9298095703125 161.58424377441406 74.85041809082031 161.5131072998047 74.75338745117188 161.51220703125" fill="#ccc"/>
  <path transform="matrix(0.99631 -0.08583 0.08583 0.99631 2.42252e-8 2.59045e-7)" d="M 73.60140991210938 161.57479858398438 L 73.21794128417969 161.57131958007812 C 73.12091827392578 161.57041931152344 73.04295349121094 161.64012145996094 73.0438461303711 161.72702026367188 L 73.04733276367188 162.0703582763672 C 73.0482177734375 162.15724182128906 73.12759399414062 162.2283477783203 73.22462463378906 162.22923278808594 L 73.60809326171875 162.23272705078125 C 73.70514678955078 162.233642578125 73.78307342529297 162.16390991210938 73.7822036743164 162.0770263671875 L 73.77873229980469 161.73370361328125 C 73.77783966064453 161.64682006835938 73.6984634399414 161.57568359375 73.60140991210938 161.57479858398438" fill="#ccc"/>
  <path transform="matrix(0.99631 -0.08583 0.08583 0.99631 2.42252e-8 2.59045e-7)" d="M 72.44945526123047 161.63739013671875 L 72.06597900390625 161.63389587402344 C 71.96894073486328 161.63299560546875 71.8909912109375 161.70274353027344 71.89185333251953 161.78961181640625 L 71.89535522460938 162.1329345703125 C 71.89623260498047 162.2198028564453 71.97561645507812 162.2909393310547 72.07266235351562 162.29183959960938 L 72.45611572265625 162.29531860351562 C 72.55315399169922 162.2962188720703 72.63111114501953 162.22650146484375 72.63023376464844 162.1396026611328 L 72.62673950195312 161.79627990722656 C 72.62586975097656 161.7093963623047 72.54649353027344 161.63824462890625 72.44945526123047 161.63739013671875" fill="#ccc"/>
  <path transform="matrix(0.99631 -0.08583 0.08583 0.99631 2.42252e-8 2.59045e-7)" d="M 71.23296356201172 161.74832153320312 L 70.84949493408203 161.7448272705078 C 70.75244903564453 161.7439727783203 70.67448425292969 161.81365966796875 70.67537689208984 161.90057373046875 L 70.6788558959961 162.24386596679688 C 70.67974090576172 162.3307647705078 70.75912475585938 162.40188598632812 70.85616302490234 162.40277099609375 L 71.23963928222656 162.40626525878906 C 71.336669921875 162.4071502685547 71.41461944580078 162.33741760253906 71.41373443603516 162.2505645751953 L 71.41027069091797 161.90725708007812 C 71.40937805175781 161.8203582763672 71.32999420166016 161.74920654296875 71.23296356201172 161.74832153320312" fill="#ccc"/>
  <path transform="matrix(0.99631 -0.08583 0.08583 0.99631 2.42252e-8 2.59045e-7)" d="M 70.14550018310547 161.76251220703125 L 69.76203918457031 161.75904846191406 C 69.66498565673828 161.75816345214844 69.58704376220703 161.827880859375 69.5879135131836 161.9147491455078 L 69.5914077758789 162.25808715820312 C 69.59228515625 162.34494018554688 69.67167663574219 162.41610717773438 69.76871490478516 162.4169921875 L 70.15216827392578 162.4204559326172 C 70.24920654296875 162.4213409423828 70.32716369628906 162.35162353515625 70.3262939453125 162.2647705078125 L 70.32280731201172 161.92144775390625 C 70.32191467285156 161.83456420898438 70.24254608154297 161.76341247558594 70.14550018310547 161.76251220703125" fill="#ccc"/>
  <path transform="matrix(0.99631 -0.08583 0.08583 0.99631 2.42252e-8 2.59045e-7)" d="M 68.9336166381836 161.81996154785156 L 68.5501480102539 161.81646728515625 C 68.45311737060547 161.81556701660156 68.37516021728516 161.88528442382812 68.37603759765625 161.97216796875 L 68.37953186035156 162.3155059814453 C 68.38041687011719 162.40237426757812 68.45980072021484 162.47354125976562 68.55683135986328 162.47439575195312 L 68.94029235839844 162.47789001464844 C 69.03733825683594 162.47877502441406 69.11528778076172 162.4090576171875 69.11441040039062 162.32215881347656 L 69.11092376708984 161.97885131835938 C 69.11003112792969 161.8919677734375 69.03067016601562 161.8208465576172 68.9336166381836 161.81996154785156" fill="#ccc"/>
  <path transform="matrix(0.99631 -0.08583 0.08583 0.99631 2.42252e-8 2.59045e-7)" d="M 67.90606689453125 161.83929443359375 L 67.52259826660156 161.83580017089844 C 67.4255599975586 161.83494567871094 67.34761047363281 161.9046173095703 67.34849548339844 161.9915313720703 L 67.35197448730469 162.3348388671875 C 67.35285949707031 162.42173767089844 67.43223571777344 162.49285888671875 67.52928161621094 162.49375915527344 L 67.91273498535156 162.4972381591797 C 68.0097885131836 162.4981231689453 68.08773040771484 162.4283905029297 68.08683776855469 162.34153747558594 L 68.0833740234375 161.99819946289062 C 68.08248138427734 161.91131591796875 68.00311279296875 161.84017944335938 67.90606689453125 161.83929443359375" fill="#ccc"/>
  <path transform="matrix(0.99631 -0.08583 0.08583 0.99631 2.42252e-8 2.59045e-7)" d="M 66.63428497314453 161.89154052734375 L 66.2508316040039 161.88803100585938 C 66.15379333496094 161.8871612548828 66.07582092285156 161.95689392089844 66.07671356201172 162.04376220703125 L 66.0802001953125 162.38711547851562 C 66.0810775756836 162.47398376464844 66.16046142578125 162.5451202392578 66.25750732421875 162.54598999023438 L 66.64096069335938 162.5494842529297 C 66.73800659179688 162.55035400390625 66.8159408569336 162.48065185546875 66.8150863647461 162.39378356933594 L 66.81159210205078 162.0504608154297 C 66.81070709228516 161.9635772705078 66.73133087158203 161.8924102783203 66.63428497314453 161.89154052734375" fill="#ccc"/>
  <path transform="matrix(0.99631 -0.08583 0.08583 0.99631 2.42252e-8 2.59045e-7)" d="M 65.54222106933594 161.9592742919922 L 65.15874481201172 161.95579528808594 C 65.06172180175781 161.9549102783203 64.98375701904297 162.0246124267578 64.9846420288086 162.1114959716797 L 64.98812866210938 162.454833984375 C 64.98900604248047 162.54171752929688 65.06839752197266 162.6128387451172 65.1654281616211 162.61373901367188 L 65.54888153076172 162.61720275878906 C 65.64594268798828 162.61810302734375 65.72389221191406 162.5483856201172 65.7229995727539 162.4615020751953 L 65.71952056884766 162.11817932128906 C 65.7186279296875 162.0312957763672 65.63924407958984 161.9601593017578 65.54222106933594 161.9592742919922" fill="#ccc"/>
  <path transform="matrix(0.99631 -0.08583 0.08583 0.99631 2.42252e-8 2.59045e-7)" d="M 64.27043151855469 162.01153564453125 L 63.8869743347168 162.00804138183594 C 63.7899284362793 162.0071563720703 63.711978912353516 162.07688903808594 63.712867736816406 162.16375732421875 L 63.71634292602539 162.507080078125 C 63.71722412109375 162.5939483642578 63.796600341796875 162.66510009765625 63.89365005493164 162.66600036621094 L 64.27711486816406 162.66946411132812 C 64.37415313720703 162.67034912109375 64.45210266113281 162.60064697265625 64.45122528076172 162.51376342773438 L 64.44774627685547 162.1704559326172 C 64.44685363769531 162.0835418701172 64.36748504638672 162.01242065429688 64.27043151855469 162.01153564453125" fill="#ccc"/>
  <path transform="matrix(0.99631 -0.08583 0.08583 0.99631 2.42252e-8 2.59045e-7)" d="M 63.17375183105469 162.1328125 L 62.79029083251953 162.1293182373047 C 62.69325256347656 162.12843322753906 62.615299224853516 162.19813537597656 62.61618423461914 162.2850341796875 L 62.61967468261719 162.6283721923828 C 62.620548248291016 162.71524047851562 62.69993209838867 162.786376953125 62.796974182128906 162.7872772216797 L 63.180423736572266 162.79074096679688 C 63.277469635009766 162.7916259765625 63.35542297363281 162.721923828125 63.35453796386719 162.63502502441406 L 63.351051330566406 162.29171752929688 C 63.350181579589844 162.20480346679688 63.270790100097656 162.13368225097656 63.17375183105469 162.1328125" fill="#ccc"/>
  <path transform="matrix(0.99631 -0.08583 0.08583 0.99631 2.42252e-8 2.59045e-7)" d="M 62.14158248901367 162.20571899414062 L 61.75811767578125 162.2022247314453 C 61.661075592041016 162.20132446289062 61.583126068115234 162.2710723876953 61.58400344848633 162.35794067382812 L 61.587493896484375 162.70127868652344 C 61.588375091552734 162.7881317138672 61.667755126953125 162.85926818847656 61.764793395996094 162.86016845703125 L 62.148258209228516 162.86363220214844 C 62.24529266357422 162.86453247070312 62.3232536315918 162.79483032226562 62.322357177734375 162.70794677734375 L 62.31887435913086 162.36460876464844 C 62.317996978759766 162.27772521972656 62.23861312866211 162.2065887451172 62.14158248901367 162.20571899414062" fill="#ccc"/>
  <path transform="matrix(0.99631 -0.08583 0.08583 0.99631 2.42252e-8 2.59045e-7)" d="M 60.81913375854492 162.14572143554688 L 60.43566131591797 162.14222717285156 C 60.338623046875 162.141357421875 60.260677337646484 162.21109008789062 60.26156234741211 162.29794311523438 L 60.26504135131836 162.64126586914062 C 60.26592254638672 162.7281494140625 60.34530258178711 162.79928588867188 60.442344665527344 162.8001708984375 L 60.825801849365234 162.80364990234375 C 60.9228401184082 162.8045196533203 61.000797271728516 162.7348175048828 60.999908447265625 162.64796447753906 L 60.996429443359375 162.3046417236328 C 60.995548248291016 162.21775817871094 60.91616439819336 162.14659118652344 60.81913375854492 162.14572143554688" fill="#ccc"/>
  <path transform="matrix(0.99631 -0.08583 0.08583 0.99631 2.42252e-8 2.59045e-7)" d="M 59.66254806518555 162.2618408203125 L 59.27908706665039 162.2583465576172 C 59.182037353515625 162.25747680664062 59.10408401489258 162.3271942138672 59.10496520996094 162.41407775878906 L 59.10845947265625 162.7574005126953 C 59.10933303833008 162.84426879882812 59.188720703125 162.91542053222656 59.28575897216797 162.91629028320312 L 59.669219970703125 162.91978454589844 C 59.76626968383789 162.920654296875 59.84421157836914 162.8509521484375 59.84333038330078 162.76406860351562 L 59.83984375 162.42074584960938 C 59.838966369628906 162.33387756347656 59.75958251953125 162.26272583007812 59.66254806518555 162.2618408203125" fill="#ccc"/>
  <path transform="matrix(0.99631 -0.08583 0.08583 0.99631 2.42252e-8 2.59045e-7)" d="M 58.45066833496094 162.3192596435547 L 58.067203521728516 162.31578063964844 C 57.970176696777344 162.31488037109375 57.89221954345703 162.38462829589844 57.89310073852539 162.47149658203125 L 57.89657974243164 162.8148193359375 C 57.897464752197266 162.9016571044922 57.97685241699219 162.9728240966797 58.073875427246094 162.97372436523438 L 58.45734786987305 162.97720336914062 C 58.554386138916016 162.9780731201172 58.63233947753906 162.90838623046875 58.63145446777344 162.82147216796875 L 58.62798309326172 162.47816467285156 C 58.6270866394043 162.3912811279297 58.54771041870117 162.32012939453125 58.45066833496094 162.3192596435547" fill="#ccc"/>
  <path transform="matrix(0.99631 -0.08583 0.08583 0.99631 2.42252e-8 2.59045e-7)" d="M 57.41389083862305 162.44569396972656 L 57.030433654785156 162.4422149658203 C 56.93339157104492 162.44131469726562 56.855445861816406 162.5110321044922 56.856319427490234 162.59791564941406 L 56.85979461669922 162.94125366210938 C 56.860679626464844 163.02813720703125 56.940067291259766 163.09927368164062 57.037105560302734 163.1001434326172 L 57.420570373535156 163.1036376953125 C 57.51761245727539 163.10452270507812 57.59556198120117 163.0347900390625 57.594669342041016 162.9479217529297 L 57.591190338134766 162.60459899902344 C 57.590309143066406 162.51773071289062 57.51093292236328 162.4465789794922 57.41389083862305 162.44569396972656" fill="#ccc"/>
  <path transform="matrix(0.99631 -0.08583 0.08583 0.99631 2.42252e-8 2.59045e-7)" d="M 56.146728515625 162.44439697265625 L 55.763267517089844 162.44090270996094 C 55.666221618652344 162.44004821777344 55.58827590942383 162.50975036621094 55.58914566040039 162.5966339111328 L 55.59264373779297 162.93995666503906 C 55.59352111816406 163.02685546875 55.67290115356445 163.0979766845703 55.76994323730469 163.09884643554688 L 56.15339660644531 163.10235595703125 C 56.250450134277344 163.10321044921875 56.328392028808594 163.0335235595703 56.327510833740234 162.94662475585938 L 56.32402420043945 162.6033172607422 C 56.32313919067383 162.51641845703125 56.24375915527344 162.4453125 56.146728515625 162.44439697265625" fill="#ccc"/>
  <path transform="matrix(0.99631 -0.08583 0.08583 0.99631 2.42252e-8 2.59045e-7)" d="M 55.11455154418945 162.51730346679688 L 54.73109436035156 162.51380920410156 C 54.63405227661133 162.512939453125 54.55609893798828 162.58262634277344 54.556983947753906 162.6695098876953 L 54.56047058105469 163.0128631591797 C 54.56134033203125 163.09974670410156 54.64073181152344 163.17088317871094 54.737770080566406 163.1717529296875 L 55.12122344970703 163.17523193359375 C 55.21826934814453 163.17613220214844 55.29621887207031 163.1063995361328 55.29533386230469 163.01953125 L 55.29185485839844 162.67620849609375 C 55.290977478027344 162.58934020996094 55.211585998535156 162.5181884765625 55.11455154418945 162.51730346679688" fill="#ccc"/>
  <path transform="matrix(0.99631 -0.08583 0.08583 0.99631 2.42252e-8 2.59045e-7)" d="M 53.967185974121094 162.5263214111328 L 53.58373260498047 162.52285766601562 C 53.48668670654297 162.52194213867188 53.40873718261719 162.59169006347656 53.40961456298828 162.67857360839844 L 53.413108825683594 163.02188110351562 C 53.41399383544922 163.1087646484375 53.49336624145508 163.1798858642578 53.59040451049805 163.18080139160156 L 53.973873138427734 163.18426513671875 C 54.07090377807617 163.18516540527344 54.14885711669922 163.11544799804688 54.147979736328125 163.028564453125 L 54.14449691772461 162.68524169921875 C 54.14360809326172 162.5983428955078 54.064231872558594 162.52720642089844 53.967185974121094 162.5263214111328" fill="#ccc"/>
  <path transform="matrix(0.99631 -0.08583 0.08583 0.99631 2.42252e-8 2.59045e-7)" d="M 52.999542236328125 162.5508575439453 L 52.61607360839844 162.54737854003906 C 52.5190315246582 162.54647827148438 52.44108963012695 162.6162109375 52.44197082519531 162.70306396484375 L 52.445457458496094 163.04638671875 C 52.446327209472656 163.1332550048828 52.52571105957031 163.2044219970703 52.62276077270508 163.20530700683594 L 53.0062141418457 163.2087860107422 C 53.10325241088867 163.20965576171875 53.18120193481445 163.1399688720703 53.180328369140625 163.05308532714844 L 53.17683792114258 162.70974731445312 C 53.175960540771484 162.6228790283203 53.096580505371094 162.5517120361328 52.999542236328125 162.5508575439453" fill="#ccc"/>
  <path transform="matrix(0.99631 -0.08583 0.08583 0.99631 2.42252e-8 2.59045e-7)" d="M 51.77382278442383 162.76889038085938 L 51.39036560058594 162.76539611816406 C 51.29332733154297 162.76454162597656 51.21537399291992 162.834228515625 51.21625900268555 162.92112731933594 L 51.21974182128906 163.2644500732422 C 51.22062301635742 163.351318359375 51.30000686645508 163.42247009277344 51.39704513549805 163.42335510253906 L 51.78050994873047 163.42681884765625 C 51.87754821777344 163.42770385742188 51.95549774169922 163.35800170898438 51.954612731933594 163.27110290527344 L 51.95112991333008 162.9278106689453 C 51.95024490356445 162.84092712402344 51.870872497558594 162.769775390625 51.77382278442383 162.76889038085938" fill="#ccc"/>
  <path transform="matrix(0.986707 -0.16251 0.16251 0.986707 2.42252e-8 2.59045e-7)" d="M 33.285621643066406 164.56283569335938 L 31.86040496826172 164.44937133789062 C 31.558134078979492 164.4253387451172 31.317276000976562 164.62640380859375 31.322444915771484 164.89852905273438 L 31.367422103881836 167.2672882080078 C 31.372583389282227 167.53941345214844 31.621816635131836 167.77952575683594 31.924087524414062 167.8035888671875 L 33.349300384521484 167.91705322265625 C 33.65157699584961 167.94113159179688 33.89242935180664 167.74002075195312 33.88725662231445 167.4678955078125 L 33.842288970947266 165.09915161132812 C 33.83711624145508 164.82701110839844 33.587886810302734 164.58689880371094 33.285621643066406 164.56283569335938" fill="none" stroke="#fff" stroke-width="0.14992336360275904"/>
  <path d="M 161.40139770507812 143.8260955810547 L 163.00860595703125 142.8631134033203 C 163.00860595703125 142.8631134033203 163.20291137695312 143.03675842285156 162.7260284423828 142.45265197753906 C 162.24916076660156 141.86856079101562 161.80763244628906 141.41073608398438 161.80763244628906 141.41073608398438 C 161.80763244628906 141.41073608398438 161.0128173828125 141.58436584472656 160.8715362548828 141.86856079101562 C 160.73023986816406 142.15269470214844 160.67726135253906 142.21585083007812 160.7655792236328 142.5 C 160.8538818359375 142.78414916992188 161.36607360839844 143.857666015625 161.4014129638672 143.82606506347656 Z" fill="#ccc" stroke="#000" stroke-width="0.09971315738576918" transform="matrix(1 0 0 1 2.42252e-8 2.59045e-7)"/>
  <path d="M 163.2030029296875 142.673095703125 C 163.2030029296875 142.673095703125 163.64456176757812 142.38890075683594 163.78585815429688 141.96267700195312 C 163.9271240234375 141.53643798828125 163.9271240234375 141.36276245117188 163.9271240234375 141.36276245117188 L 162.99107360839844 140.77865600585938 C 162.99107360839844 140.77865600585938 162.10800170898438 141.15753173828125 162.0196990966797 141.26805114746094 C 161.93138122558594 141.3785858154297 163.16770935058594 142.65728759765625 163.2030487060547 142.673095703125 Z" fill="#ccc" stroke="#000" stroke-width="0.09971315738576918" transform="matrix(1 0 0 1 2.42252e-8 2.59045e-7)"/>
  <path d="M 164.0492401123047 141.2057647705078 C 164.0492401123047 141.2057647705078 165.00299072265625 140.46377563476562 165.03834533691406 140.36907958984375 C 165.07366943359375 140.27435302734375 165.1266326904297 140.03756713867188 164.86172485351562 139.86390686035156 C 164.59678649902344 139.69024658203125 163.69601440429688 139.34291076660156 163.69601440429688 139.34291076660156 C 163.69601440429688 139.34291076660156 163.85498046875 140.0691375732422 163.5017547607422 140.36907958984375 C 163.1485137939453 140.6690216064453 163.14852905273438 140.65322875976562 163.14852905273438 140.65322875976562 L 164.04930114746094 141.20579528808594 Z" fill="#ccc" stroke="#000" stroke-width="0.09971315738576918" transform="matrix(1 0 0 1 2.42252e-8 2.59045e-7)"/>
  <path transform="matrix(0.979027 -0.203729 0.203729 0.979027 2.42252e-8 2.59045e-7)" d="M 120.99836730957031 172.75453186035156 L 120.75858306884766 172.74942016601562 C 120.69793701171875 172.74815368652344 120.64976501464844 172.79148864746094 120.65105438232422 172.84620666503906 L 120.65615844726562 173.0625457763672 C 120.657470703125 173.11729431152344 120.70767974853516 173.1627197265625 120.76836395263672 173.1639862060547 L 121.00813293457031 173.16909790039062 C 121.06880950927734 173.17039489746094 121.11693572998047 173.12704467773438 121.11565399169922 173.07232666015625 L 121.1105728149414 172.8560028076172 C 121.1092529296875 172.80123901367188 121.05902862548828 172.75582885742188 120.99836730957031 172.75453186035156" fill="#ccc"/>
  <path transform="matrix(0.979027 -0.203729 0.203729 0.979027 2.42252e-8 2.59045e-7)" d="M 98.6261215209961 171.7521514892578 L 98.3863525390625 171.74703979492188 C 98.32566833496094 171.74575805664062 98.27755737304688 171.7890625 98.27883911132812 171.8438262939453 L 98.28392791748047 172.0601348876953 C 98.28524017333984 172.11488342285156 98.33544921875 172.1603240966797 98.39613342285156 172.16160583496094 L 98.63589477539062 172.1667022705078 C 98.69657135009766 172.16799926757812 98.74472045898438 172.12466430664062 98.74341583251953 172.06991577148438 L 98.73832702636719 171.85360717773438 C 98.73703002929688 171.79885864257812 98.6867904663086 171.75343322753906 98.6261215209961 171.7521514892578" fill="#ccc"/>
  <path transform="matrix(0.979027 -0.203729 0.203729 0.979027 2.42252e-8 2.59045e-7)" d="M 65.82499694824219 169.31021118164062 L 65.5852279663086 169.30511474609375 C 65.52455139160156 169.3038330078125 65.4764175415039 169.34715270996094 65.47770690917969 169.4019012451172 L 65.4828109741211 169.6182098388672 C 65.48409271240234 169.67295837402344 65.53433990478516 169.7183837890625 65.59500122070312 169.7196807861328 L 65.83477020263672 169.72479248046875 C 65.89543151855469 169.72604370117188 65.94358825683594 169.68270874023438 65.94229888916016 169.6279754638672 L 65.93719482421875 169.41165161132812 C 65.93590545654297 169.35690307617188 65.88568115234375 169.31149291992188 65.82499694824219 169.31021118164062" fill="#ccc"/>
  <path transform="matrix(0.979027 -0.203729 0.203729 0.979027 2.42252e-8 2.59045e-7)" d="M 25.772192001342773 166.3638458251953 L 25.532432556152344 166.35874938964844 C 25.47174835205078 166.35745239257812 25.423608779907227 166.40077209472656 25.42490005493164 166.45550537109375 L 25.43000030517578 166.6718292236328 C 25.431297302246094 166.72659301757812 25.481521606445312 166.77203369140625 25.542200088500977 166.77334594726562 L 25.781967163085938 166.77841186523438 C 25.84263801574707 166.7797088623047 25.89078140258789 166.73635864257812 25.889497756958008 166.68161010742188 L 25.88439178466797 166.46530151367188 C 25.88309669494629 166.41055297851562 25.83286476135254 166.36514282226562 25.772192001342773 166.3638458251953" fill="#ccc"/>
  <path transform="matrix(0.984232 -0.176881 0.176881 0.984232 114.683 45.9394)" d="M -73.99794006347656 90.86447143554688 C -73.9668960571289 92.37118530273438 -73.50918579101562 93.60570526123047 -72.97561645507812 93.621826171875 C -72.4420394897461 93.63796997070312 -72.03466796875 92.42960357666016 -72.06571960449219 90.92288970947266 C -72.09677124023438 89.41617584228516 -72.55445861816406 88.18165588378906 -73.0880355834961 88.16552734375 C -73.6216049194336 88.14940643310547 -74.02897644042969 89.35774230957031 -73.99794006347656 90.86447143554688 Z" fill="#333" stroke="#808080" stroke-width="0.16111607941634343"/>
  <path transform="matrix(0.988696 -0.149932 0.149932 0.988696 88.5 84.5184)" d="M -39.08769607543945 58.689571380615234 C -39.07129669189453 59.623287200927734 -38.82952880859375 60.3747444152832 -38.54768371582031 60.368011474609375 C -38.26583480834961 60.36127853393555 -38.050655364990234 59.598899841308594 -38.06704330444336 58.66517639160156 C -38.08344650268555 57.73146057128906 -38.32520294189453 56.97998809814453 -38.60706329345703 56.98672866821289 C -38.888912200927734 56.993465423583984 -39.104087829589844 57.75584030151367 -39.08769607543945 58.689571380615234 Z" fill="url(#n)" stroke="#808080" stroke-width="0.09240332552260858"/>
  <path d="M 56.12664031982422 146.2167205810547 C 56.12664031982422 146.2167205810547 56.07499694824219 147.931640625 56.281558990478516 148.76596069335938 C 56.48810577392578 149.6002960205078 57.159400939941406 150.85165405273438 57.159400939941406 150.85165405273438 L 42.236026763916016 153.40090942382812 L 37.64031982421875 154.14248657226562 C 37.64031982421875 154.14248657226562 37.072288513183594 152.3812255859375 37.12393569946289 151.82496643066406 C 37.17558288574219 151.26864624023438 37.072296142578125 150.66619873046875 36.03951644897461 150.80526733398438 C 35.006744384765625 150.9443359375 31.340517044067383 151.50050354003906 31.340517044067383 151.50050354003906 C 31.340517044067383 151.50050354003906 31.08232307434082 150.3881378173828 32.063446044921875 149.92462158203125 C 33.04456329345703 149.4611053466797 38.7764778137207 148.30238342285156 38.7764778137207 148.30238342285156 L 31.185672760009766 140.6084747314453 L 36.81433868408203 139.8668975830078 L 50.34345626831055 147.097412109375 L 56.12682342529297 146.21678161621094 Z" fill="#fff" transform="matrix(1 0 0 1 2.42252e-8 2.59045e-7)"/>
  <path d="M 112.29935455322266 156.93862915039062 L 72.649169921875 183.46278381347656 L 69.7447509765625 184.1400146484375 C 69.7447509765625 184.1400146484375 69.61846923828125 184.93011474609375 68.98709106445312 185.04299926757812 C 68.35572052001953 185.15585327148438 67.72434997558594 184.47862243652344 67.72434997558594 184.47862243652344 L 65.8302001953125 184.1400146484375 L 63.557220458984375 181.88270568847656 L 65.95648193359375 181.54409790039062 L 68.60823059082031 182.4470672607422 L 85.52938842773438 166.64527893066406 L 87.92864227294922 158.85728454589844 L 92.6009750366211 156.93850708007812 L 103.20823669433594 155.47119140625 L 113.68915557861328 154.5682373046875 L 112.30010986328125 156.93846130371094 Z" fill="#78706e" transform="matrix(1 0 0 1 2.42252e-8 2.59045e-7)"/>
  <path d="M 50.92789077758789 159.42245483398438 L 39.31047058105469 166.87188720703125 L 34.2593879699707 167.66195678710938 L 40.95206069946289 159.19667053222656 L 50.92789077758789 159.4224090576172 Z" fill="#46484b" transform="matrix(1 0 0 1 2.42252e-8 2.59045e-7)"/>
  <g transform="matrix(1 0 0 1 140.206 87.4162)">
   <path d="M -24.83155059814453 74.70077514648438 C -24.83155059814453 74.70077514648438 -23.903539657592773 74.95213317871094 -23.50982093811035 75.63080596923828 C -23.11610221862793 76.3094711303711 -22.919269561767578 78.64713287353516 -23.031747817993164 79.30061340332031 C -23.144227981567383 79.9541015625 -23.959766387939453 80.45684814453125 -23.959766387939453 80.45684814453125 C -23.959766387939453 80.45684814453125 -24.803390502929688 78.32027435302734 -24.859638214111328 76.86246490478516 C -24.915876388549805 75.40464782714844 -24.944002151489258 74.70081329345703 -24.831514358520508 74.70081329345703 Z" fill="#e6e6e6" stroke="#000" transform="matrix(1 0 0 1 -0.0000310865 -0.00000475421)"/>
   <path d="M -36.36140060424805 75.17779541015625 C -36.36140060424805 75.17779541015625 -32.84622573852539 75.52970123291016 -30.849599838256836 75.37889099121094 C -28.85297393798828 75.22807312011719 -24.972251892089844 74.52426147460938 -24.972251892089844 74.52426147460938 C -24.972251892089844 74.52426147460938 -25.00037956237793 76.98758697509766 -24.719154357910156 78.11864471435547 C -24.437944412231445 79.2497329711914 -23.903644561767578 80.45630645751953 -23.903644561767578 80.45630645751953 C -23.903644561767578 80.45630645751953 -29.38727378845215 81.23550415039062 -31.355850219726562 81.23550415039062 C -33.32442855834961 81.23550415039062 -33.4087028503418 81.21038055419922 -33.4087028503418 81.21038055419922 L -33.60554122924805 80.60711669921875 C -33.60554122924805 80.60711669921875 -35.96772766113281 80.60711669921875 -36.220848083496094 80.48143768310547 C -36.473968505859375 80.35574340820312 -36.55830383300781 79.97872161865234 -36.55830383300781 79.97872161865234 C -36.55830383300781 79.97872161865234 -38.58310317993164 79.77763366699219 -38.75175476074219 79.67709350585938 C -38.920379638671875 79.5765609741211 -39.117313385009766 79.27491760253906 -38.6392707824707 79.09896850585938 C -38.16120147705078 78.92301940917969 -36.670780181884766 78.06839752197266 -36.670780181884766 78.06839752197266 C -36.670780181884766 78.06839752197266 -38.526832580566406 78.29461669921875 -39.22988510131836 78.29461669921875 C -39.932945251464844 78.29460906982422 -40.86094665527344 78.04325866699219 -40.86094665527344 78.04325866699219 L -37.064598083496094 75.52970123291016 L -36.361568450927734 75.17780303955078 Z" fill="url(#f)" stroke="#000" transform="matrix(1 0 0 1 -0.0000310865 -0.00000475421)"/>
   <path d="M -36.48585510253906 75.15422821044922 C -36.48585510253906 75.15422821044922 -32.45156478881836 75.47123718261719 -31.12150001525879 75.35235595703125 C -29.791433334350586 75.23347473144531 -28.817420959472656 75.00755310058594 -28.594463348388672 75.35235595703125 C -27.786853790283203 76.60145568847656 -32.06281661987305 76.54950714111328 -32.80614471435547 76.62039947509766 C -33.49050521850586 76.68569946289062 -34.09181594848633 76.73927307128906 -34.09181594848633 77.0959243774414 C -34.091819763183594 77.45258331298828 -34.18048095703125 77.76957702636719 -35.155792236328125 77.88845825195312 C -36.131080627441406 78.00733184814453 -37.372413635253906 78.16584777832031 -38.03739929199219 78.16584777832031 C -38.70237350463867 78.16584014892578 -40.209739685058594 78.28471374511719 -40.520023345947266 78.16583251953125 C -40.83030700683594 78.04696655273438 -40.830360412597656 78.00733184814453 -40.830360412597656 78.00733184814453 L -36.48568344116211 75.15420532226562 Z" fill="url(#e)" stroke="#4d4d4d" transform="matrix(1 0 0 1 -0.0000310865 -0.00000475421)"/>
   <path d="M -34.181358337402344 77.05662536621094 C -34.181358337402344 77.05662536621094 -33.9141960144043 79.7907943725586 -33.647037506103516 80.54364776611328 L -33.37989044189453 81.2965087890625 C -33.37989044189453 81.2965087890625 -27.012638092041016 80.93987274169922 -26.255687713623047 80.78138732910156 C -25.498729705810547 80.62287902832031 -23.984844207763672 80.46439361572266 -23.984844207763672 80.46439361572266 C -23.984844207763672 80.46439361572266 -24.964412689208984 77.41320037841797 -25.05344009399414 76.66033172607422 C -25.142486572265625 75.90748596191406 -24.964405059814453 74.56015014648438 -24.964405059814453 74.56015014648438 L -29.55060577392578 75.19414520263672 C -29.55060577392578 75.19414520263672 -28.303852081298828 75.23377990722656 -28.57103157043457 75.63003540039062 C -28.83819580078125 76.02629089355469 -33.825050354003906 76.66032409667969 -33.825050354003906 76.66032409667969 L -34.181270599365234 77.05658721923828 Z" fill="url(#d)" stroke="#666" stroke-width="0.0999325459629736" transform="matrix(1 0 0 1 -0.0000310865 -0.00000475421)"/>
   <path d="M -24.914873123168945 74.52072143554688 C -22.64212989807129 74.44623565673828 -22.501333236694336 81.1944808959961 -23.939538955688477 80.30615997314453 C -24.66878890991211 78.63275909423828 -25.237340927124023 77.02975463867188 -24.914873123168945 74.52072143554688 Z" fill="url(#b)" stroke="#666" transform="matrix(1 0 0 1 -0.0000310865 -0.00000475421)"/>
   <path d="M -23.984647750854492 75.31260681152344 C -23.984647750854492 75.31260681152344 -24.427978515625 77.13543701171875 -23.984642028808594 78.40348815917969 C -23.541296005249023 79.67152404785156 -23.363985061645508 79.98857879638672 -23.363985061645508 79.98857879638672 C -23.363985061645508 79.98857879638672 -23.940319061279297 78.4827651977539 -23.895984649658203 77.61094665527344 C -23.851659774780273 76.7391128540039 -23.98464584350586 75.39189147949219 -23.984647750854492 75.31260681152344 Z" filter="url(#l)" transform="matrix(1 0 0 1 -0.0000310865 -0.00000475421)"/>
   <path d="M -25.80186653137207 78.00782775878906 C -25.80186653137207 78.00782775878906 -32.00849151611328 78.72110748291016 -32.806575775146484 78.8796157836914 C -33.60466003417969 79.03811645507812 -33.38290786743164 79.51363372802734 -32.185916900634766 79.27588653564453 C -30.988920211791992 79.03813934326172 -25.93488311767578 78.5229721069336 -25.801883697509766 78.36447143554688 C -25.66888427734375 78.20596313476562 -25.757553100585938 78.00782775878906 -25.801881790161133 78.00782775878906 Z" fill="#f9f9f9" filter="url(#k)" transform="matrix(1 0 0 1 -0.0000310865 -0.00000475421)"/>
   <path d="M -35.73280715942383 75.59070587158203 C -35.73280715942383 75.59070587158203 -38.348426818847656 77.3342514038086 -39.10211181640625 77.7305679321289 C -39.85578536987305 78.12689971923828 -40.74245834350586 78.40422058105469 -40.033111572265625 77.96834564208984 C -39.323760986328125 77.5324478149414 -35.998809814453125 75.39264678955078 -35.998809814453125 75.39264678955078 L -35.732818603515625 75.59078216552734 Z" fill="#1a1a1a" filter="url(#j)" transform="matrix(1 0 0 1 -0.0000310865 -0.00000475421)"/>
   <path d="M -35.64421844482422 75.86785888671875 C -35.64421844482422 75.86785888671875 -33.33885955810547 76.0263671875 -32.452186584472656 75.98674774169922 C -31.565528869628906 75.94711303710938 -30.36855125427246 75.90748596191406 -30.1911563873291 75.78860473632812 C -30.013761520385742 75.66973114013672 -29.17148780822754 75.51122283935547 -29.880828857421875 75.82823181152344 C -30.590179443359375 76.14524841308594 -33.11713409423828 76.3433837890625 -33.82651901245117 76.22449493408203 C -34.535892486572266 76.1056137084961 -35.73286437988281 76.18486785888672 -35.73286437988281 76.18486785888672 L -35.644203186035156 75.86785125732422 Z" fill="#fff" filter="url(#i)" transform="matrix(1 0 0 1 -0.0000310865 -0.00000475421)"/>
   <path d="M -33.51585388183594 80.58332824707031 C -33.51585388183594 80.58332824707031 -36.04288101196289 80.70220947265625 -36.26446533203125 80.46444702148438 C -36.48606491088867 80.2267074584961 -36.75214385986328 79.35487365722656 -36.752140045166016 78.80008697509766 C -36.75214385986328 78.24531555175781 -36.8851318359375 78.12643432617188 -36.8851318359375 78.12643432617188 C -36.8851318359375 78.12643432617188 -35.59946823120117 78.04716491699219 -35.200477600097656 77.88866424560547 C -34.80149459838867 77.73015594482422 -34.04781723022461 77.49240112304688 -34.04781723022461 77.49240112304688 L -33.515811920166016 80.58328247070312 Z" fill="url(#c)" stroke="#4d4d4d" transform="matrix(1 0 0 1 -0.0000310865 -0.00000475421)"/>
   <path transform="matrix(1 0 0 1 3.40335 12.0818)" d="M -37.49517822265625 66.9718246459961 C -37.49517822265625 66.9718246459961 -39.820499420166016 67.00544738769531 -39.57825469970703 67.20719909667969 C -39.336002349853516 67.40897369384766 -38.609378814697266 67.40896606445312 -38.17341232299805 67.27445983886719 C -37.737422943115234 67.13995361328125 -37.44675827026367 67.0390625 -37.495208740234375 66.97181701660156 Z" fill="#fff" filter="url(#a)"/>
   <path transform="matrix(1 0 0 1 -0.0000325382 36.0004)" d="M -36.92986297607422 43.163818359375 C -36.92986297607422 43.163818359375 -39.057918548583984 43.18545913696289 -38.83622741699219 43.31523513793945 C -38.614524841308594 43.44500732421875 -37.94955062866211 43.445011138916016 -37.5505485534668 43.35848617553711 C -37.15156173706055 43.271976470947266 -36.88555145263672 43.20708084106445 -36.929893493652344 43.163822174072266 Z" fill="#fff" filter="url(#a)"/>
  </g>
  <path transform="matrix(1 0 0 1 140.206 87.4162)" d="M -34.77623748779297 69.0416488647461 C -34.77623748779297 69.0416488647461 -50.194705963134766 72.25725555419922 -51.73666000366211 74.70728302001953 C -53.27860641479492 77.15729522705078 -52.59322738647461 77.76978302001953 -53.27850341796875 79.6073226928711 C -53.96379470825195 81.44486236572266 -65.61306762695312 88.4886474609375 -68.18228149414062 92.3170166015625 C -70.75151062011719 96.14537811279297 -69.21016693115234 97.52325439453125 -64.92730712890625 94.30765533447266 C -60.64445877075195 91.09204864501953 -44.02657699584961 78.68872833251953 -40.258174896240234 75.32042694091797 C -36.489784240722656 71.95209503173828 -34.776126861572266 69.50160217285156 -34.776126861572266 69.0422134399414 Z" fill="#494e51" filter="url(#w)" opacity=".88" stroke="#000"/>
  <path transform="matrix(0.999943 0.010665 -0.010665 0.999943 140.64 85.8817)" d="M -28.873313903808594 72.44416046142578 L -65.27508544921875 98.15164184570312 L -67.93994140625 98.81536102294922 C -67.93994140625 98.81536102294922 -68.0567398071289 99.57701873779297 -68.63599395751953 99.68824005126953 C -69.21526336669922 99.79948425292969 -69.7935562133789 99.14936828613281 -69.7935562133789 99.14936828613281 L -71.53050994873047 98.83041381835938 L -73.612548828125 96.6641845703125 L -71.4114990234375 96.32870483398438 L -68.98027038574219 97.18852233886719 L -53.440616607666016 81.89925384521484 L -51.23046112060547 74.38655853271484 L -46.942562103271484 72.51985931396484 L -37.211421966552734 71.06525421142578 L -27.59682273864746 70.1549301147461 L -28.87381362915039 72.44392395019531 Z" fill="none" filter="url(#v)" stroke="#000" stroke-width="0.3471549245188949"/>
  <path transform="matrix(1 0 0 1 133.722 92.4662)" d="M -84.92567443847656 67.98078155517578 L -93.5699462890625 73.52379608154297 L -97.32830810546875 74.1116943359375 L -92.34844970703125 67.81287384033203 L -84.92566680908203 67.98084259033203 Z" fill="#808080" filter="url(#u)" opacity=".73"/>
  <path transform="matrix(1 0 0 1 140.206 87.4162)" d="M -90.53543853759766 72.61077117919922 L -100.39982604980469 78.93611145019531 L -104.68870544433594 79.60698699951172 L -99.00594329833984 72.41905975341797 L -90.53543090820312 72.6107406616211 Z" fill="none" filter="url(#t)" stroke="#000" stroke-width="0.20431226308508887"/>
  <path transform="matrix(0.994982 -0.100057 0.100057 0.994982 125.58 79.2951)" d="M -102.0739974975586 50.67205810546875 L -95.47283172607422 50.741886138916016 L -84.37727355957031 58.756046295166016 L -92.9764404296875 60.28034210205078 L -95.00623321533203 59.182010650634766 L -102.07381439208984 50.67206954956055 Z" fill="#eceae8" filter="url(#s)"/>
  <path transform="matrix(1 0 0 1 140.206 87.4162)" d="M -81.61383819580078 63.84257125854492 L -104.5775375366211 67.51774597167969 L -105.04300689697266 66.40826416015625 C -105.04300689697266 66.40826416015625 -83.32067108154297 62.45564651489258 -82.62247467041016 62.66371536254883 C -81.92427062988281 62.87177276611328 -81.5363540649414 63.98125076293945 -81.61393737792969 63.84257125854492 Z" fill="url(#m)" filter="url(#r)"/>
  <text transform="matrix(0.994406 -0.105621 0.131785 0.991278 -9.50855e-7 0.00000219416)" x="114.50597445877679" y="159.4499499967199" fill="#fff" font-family="Arial Narrow" font-size="1.8662013178764505" controller-class="Text_box" text-anchor="start" height="2.65625"><tspan x="0" y="1" newline=""><![CDATA[perpic]]></tspan></text>
  <text transform="matrix(0.989252 -0.146221 0.18192 0.983313 -9.50855e-7 0.00000219416)" x="10.580772701603998" y="153.2437388836985" fill="#192851" font-family="Arial Narrow" font-size="3.5095352290175232" controller-class="Text_box" text-anchor="start" height="3.984375"><tspan x="0" y="3" newline=""><![CDATA[LGM]]></tspan></text>
 </g><text controller-class="Text_box" transform="matrix(1 0 0 1 24.7738 70.6785)" width="109.04976463317871" height="27.296875" font-family="Alegreya Sans SC" font-size="20" font-style="" text-align="left" text-anchor="start" fill="url(#__1507201789515_1__)" stroke="#000000" stroke-width="1.00" stroke-linecap="butt" stroke-linejoin="miter" opacity="1" style="" font-weight="300" filter="url(#__1507201789515_3__)"><tspan x="0" y="20" newline=""><![CDATA[Coola resor]]></tspan></text></g></g></svg>