<?xml version="1.0" encoding="UTF-8"?>
<svg viewBox="0 0 766.25 768.75" xmlns="http://www.w3.org/2000/svg">
 <g transform="matrix(1.25,0,0,-1.25,0,768.75)">
  <g transform="scale(.24)">
   <path d="m346.25 2484.2c-172.64-0.12-269.46-89.16-269-271v-1876c-0.4609-169.79 86.582-258.89 259-259h1883c172.2 0.1094 259.38 84.773 259 259v1876c0.38 177.4-86.8 270.88-264 271 0 0-1869 0.48-1868 0"/>
   <path d="m346.25 2484.2c-172.64-0.12-269.46-89.16-269-271v-1876c-0.4609-169.79 86.582-258.89 259-259h1883c172.2 0.1094 259.38 84.773 259 259v1876c0.38 177.4-86.8 270.88-264 271 0 0-1869 0.48-1868 0z" fill="none" stroke="#fff" stroke-miterlimit="10" stroke-width="14.2"/>
   <path d="m1213.25,1955.25c95.27-.04 172.19,76.88 172,172 .19,94.65-76.73,171.58-172,172-94.5-.42-171.43-77.35-171-172-.43-95.12 76.5-172.04 171-172" fill="#fff"/>
   <path d="m1848.25,532.25h75c52.93.148 80.11,41.961 80,80 0,0 .11,421.08 0,423 .11,38.45-29.85,80.76-80,81h-75v-584" fill="#fff"/>
   <path d="m1008.2 1910.2-362 371c-79.43 79.49-195.91-36.98-116-117l463-471v-1361c-0.43-134.36 195.71-130.41 196 0v784h33v-784c-0.41-130.48 197.19-134.36 197 0v1310h35v-526h-109v-584h463v584h-109v80c-0.41 29.59-18.38 45.56-50 46 0 0-19.06-0.44-51 0v453c-0.13 104.75-89.92 215.38-209 215h-381" fill="#fff"/>
   <path d="m1500.2 1116.2h150v79h-150v-79z"/>
  </g>
 </g>
</svg>
